<?xml version="1.0" encoding="utf-8" standalone="no"?>
<!DOCTYPE svg PUBLIC "-//W3C//DTD SVG 1.1//EN"
  "http://www.w3.org/Graphics/SVG/1.1/DTD/svg11.dtd">
<!-- Created with matplotlib (https://matplotlib.org/) -->
<svg height="360pt" version="1.1" viewBox="0 0 720 360" width="720pt" xmlns="http://www.w3.org/2000/svg" xmlns:xlink="http://www.w3.org/1999/xlink">
 <metadata>
  <rdf:RDF xmlns:cc="http://creativecommons.org/ns#" xmlns:dc="http://purl.org/dc/elements/1.1/" xmlns:rdf="http://www.w3.org/1999/02/22-rdf-syntax-ns#">
   <cc:Work>
    <dc:type rdf:resource="http://purl.org/dc/dcmitype/StillImage"/>
    <dc:date>2021-04-09T17:12:59.113947</dc:date>
    <dc:format>image/svg+xml</dc:format>
    <dc:creator>
     <cc:Agent>
      <dc:title>Matplotlib v3.3.4, https://matplotlib.org/</dc:title>
     </cc:Agent>
    </dc:creator>
   </cc:Work>
  </rdf:RDF>
 </metadata>
 <defs>
  <style type="text/css">*{stroke-linecap:butt;stroke-linejoin:round;}</style>
 </defs>
 <g id="figure_1">
  <g id="patch_1">
   <path d="M 0 360 
L 720 360 
L 720 0 
L 0 0 
z
" style="fill:#ffffff;"/>
  </g>
  <g id="axes_1">
   <g id="patch_2">
    <path d="M 90 320.4 
L 648 320.4 
L 648 43.2 
L 90 43.2 
z
" style="fill:#ffffff;"/>
   </g>
   <g id="matplotlib.axis_1">
    <g id="xtick_1">
     <g id="line2d_1">
      <defs>
       <path d="M 0 0 
L 0 3.5 
" id="m36c8d26dfe" style="stroke:#000000;stroke-width:0.8;"/>
      </defs>
      <g>
       <use style="stroke:#000000;stroke-width:0.8;" x="115.363636" xlink:href="#m36c8d26dfe" y="320.4"/>
      </g>
     </g>
     <g id="text_1">
      <!-- 0 -->
      <g transform="translate(112.182386 334.998438)scale(0.1 -0.1)">
       <defs>
        <path d="M 31.78125 66.40625 
Q 24.171875 66.40625 20.328125 58.90625 
Q 16.5 51.421875 16.5 36.375 
Q 16.5 21.390625 20.328125 13.890625 
Q 24.171875 6.390625 31.78125 6.390625 
Q 39.453125 6.390625 43.28125 13.890625 
Q 47.125 21.390625 47.125 36.375 
Q 47.125 51.421875 43.28125 58.90625 
Q 39.453125 66.40625 31.78125 66.40625 
z
M 31.78125 74.21875 
Q 44.046875 74.21875 50.515625 64.515625 
Q 56.984375 54.828125 56.984375 36.375 
Q 56.984375 17.96875 50.515625 8.265625 
Q 44.046875 -1.421875 31.78125 -1.421875 
Q 19.53125 -1.421875 13.0625 8.265625 
Q 6.59375 17.96875 6.59375 36.375 
Q 6.59375 54.828125 13.0625 64.515625 
Q 19.53125 74.21875 31.78125 74.21875 
z
" id="DejaVuSans-48"/>
       </defs>
       <use xlink:href="#DejaVuSans-48"/>
      </g>
     </g>
    </g>
    <g id="xtick_2">
     <g id="line2d_2">
      <g>
       <use style="stroke:#000000;stroke-width:0.8;" x="216.828328" xlink:href="#m36c8d26dfe" y="320.4"/>
      </g>
     </g>
     <g id="text_2">
      <!-- 2000 -->
      <g transform="translate(204.103328 334.998438)scale(0.1 -0.1)">
       <defs>
        <path d="M 19.1875 8.296875 
L 53.609375 8.296875 
L 53.609375 0 
L 7.328125 0 
L 7.328125 8.296875 
Q 12.9375 14.109375 22.625 23.890625 
Q 32.328125 33.6875 34.8125 36.53125 
Q 39.546875 41.84375 41.421875 45.53125 
Q 43.3125 49.21875 43.3125 52.78125 
Q 43.3125 58.59375 39.234375 62.25 
Q 35.15625 65.921875 28.609375 65.921875 
Q 23.96875 65.921875 18.8125 64.3125 
Q 13.671875 62.703125 7.8125 59.421875 
L 7.8125 69.390625 
Q 13.765625 71.78125 18.9375 73 
Q 24.125 74.21875 28.421875 74.21875 
Q 39.75 74.21875 46.484375 68.546875 
Q 53.21875 62.890625 53.21875 53.421875 
Q 53.21875 48.921875 51.53125 44.890625 
Q 49.859375 40.875 45.40625 35.40625 
Q 44.1875 33.984375 37.640625 27.21875 
Q 31.109375 20.453125 19.1875 8.296875 
z
" id="DejaVuSans-50"/>
       </defs>
       <use xlink:href="#DejaVuSans-50"/>
       <use x="63.623047" xlink:href="#DejaVuSans-48"/>
       <use x="127.246094" xlink:href="#DejaVuSans-48"/>
       <use x="190.869141" xlink:href="#DejaVuSans-48"/>
      </g>
     </g>
    </g>
    <g id="xtick_3">
     <g id="line2d_3">
      <g>
       <use style="stroke:#000000;stroke-width:0.8;" x="318.29302" xlink:href="#m36c8d26dfe" y="320.4"/>
      </g>
     </g>
     <g id="text_3">
      <!-- 4000 -->
      <g transform="translate(305.56802 334.998438)scale(0.1 -0.1)">
       <defs>
        <path d="M 37.796875 64.3125 
L 12.890625 25.390625 
L 37.796875 25.390625 
z
M 35.203125 72.90625 
L 47.609375 72.90625 
L 47.609375 25.390625 
L 58.015625 25.390625 
L 58.015625 17.1875 
L 47.609375 17.1875 
L 47.609375 0 
L 37.796875 0 
L 37.796875 17.1875 
L 4.890625 17.1875 
L 4.890625 26.703125 
z
" id="DejaVuSans-52"/>
       </defs>
       <use xlink:href="#DejaVuSans-52"/>
       <use x="63.623047" xlink:href="#DejaVuSans-48"/>
       <use x="127.246094" xlink:href="#DejaVuSans-48"/>
       <use x="190.869141" xlink:href="#DejaVuSans-48"/>
      </g>
     </g>
    </g>
    <g id="xtick_4">
     <g id="line2d_4">
      <g>
       <use style="stroke:#000000;stroke-width:0.8;" x="419.757712" xlink:href="#m36c8d26dfe" y="320.4"/>
      </g>
     </g>
     <g id="text_4">
      <!-- 6000 -->
      <g transform="translate(407.032712 334.998438)scale(0.1 -0.1)">
       <defs>
        <path d="M 33.015625 40.375 
Q 26.375 40.375 22.484375 35.828125 
Q 18.609375 31.296875 18.609375 23.390625 
Q 18.609375 15.53125 22.484375 10.953125 
Q 26.375 6.390625 33.015625 6.390625 
Q 39.65625 6.390625 43.53125 10.953125 
Q 47.40625 15.53125 47.40625 23.390625 
Q 47.40625 31.296875 43.53125 35.828125 
Q 39.65625 40.375 33.015625 40.375 
z
M 52.59375 71.296875 
L 52.59375 62.3125 
Q 48.875 64.0625 45.09375 64.984375 
Q 41.3125 65.921875 37.59375 65.921875 
Q 27.828125 65.921875 22.671875 59.328125 
Q 17.53125 52.734375 16.796875 39.40625 
Q 19.671875 43.65625 24.015625 45.921875 
Q 28.375 48.1875 33.59375 48.1875 
Q 44.578125 48.1875 50.953125 41.515625 
Q 57.328125 34.859375 57.328125 23.390625 
Q 57.328125 12.15625 50.6875 5.359375 
Q 44.046875 -1.421875 33.015625 -1.421875 
Q 20.359375 -1.421875 13.671875 8.265625 
Q 6.984375 17.96875 6.984375 36.375 
Q 6.984375 53.65625 15.1875 63.9375 
Q 23.390625 74.21875 37.203125 74.21875 
Q 40.921875 74.21875 44.703125 73.484375 
Q 48.484375 72.75 52.59375 71.296875 
z
" id="DejaVuSans-54"/>
       </defs>
       <use xlink:href="#DejaVuSans-54"/>
       <use x="63.623047" xlink:href="#DejaVuSans-48"/>
       <use x="127.246094" xlink:href="#DejaVuSans-48"/>
       <use x="190.869141" xlink:href="#DejaVuSans-48"/>
      </g>
     </g>
    </g>
    <g id="xtick_5">
     <g id="line2d_5">
      <g>
       <use style="stroke:#000000;stroke-width:0.8;" x="521.222404" xlink:href="#m36c8d26dfe" y="320.4"/>
      </g>
     </g>
     <g id="text_5">
      <!-- 8000 -->
      <g transform="translate(508.497404 334.998438)scale(0.1 -0.1)">
       <defs>
        <path d="M 31.78125 34.625 
Q 24.75 34.625 20.71875 30.859375 
Q 16.703125 27.09375 16.703125 20.515625 
Q 16.703125 13.921875 20.71875 10.15625 
Q 24.75 6.390625 31.78125 6.390625 
Q 38.8125 6.390625 42.859375 10.171875 
Q 46.921875 13.96875 46.921875 20.515625 
Q 46.921875 27.09375 42.890625 30.859375 
Q 38.875 34.625 31.78125 34.625 
z
M 21.921875 38.8125 
Q 15.578125 40.375 12.03125 44.71875 
Q 8.5 49.078125 8.5 55.328125 
Q 8.5 64.0625 14.71875 69.140625 
Q 20.953125 74.21875 31.78125 74.21875 
Q 42.671875 74.21875 48.875 69.140625 
Q 55.078125 64.0625 55.078125 55.328125 
Q 55.078125 49.078125 51.53125 44.71875 
Q 48 40.375 41.703125 38.8125 
Q 48.828125 37.15625 52.796875 32.3125 
Q 56.78125 27.484375 56.78125 20.515625 
Q 56.78125 9.90625 50.3125 4.234375 
Q 43.84375 -1.421875 31.78125 -1.421875 
Q 19.734375 -1.421875 13.25 4.234375 
Q 6.78125 9.90625 6.78125 20.515625 
Q 6.78125 27.484375 10.78125 32.3125 
Q 14.796875 37.15625 21.921875 38.8125 
z
M 18.3125 54.390625 
Q 18.3125 48.734375 21.84375 45.5625 
Q 25.390625 42.390625 31.78125 42.390625 
Q 38.140625 42.390625 41.71875 45.5625 
Q 45.3125 48.734375 45.3125 54.390625 
Q 45.3125 60.0625 41.71875 63.234375 
Q 38.140625 66.40625 31.78125 66.40625 
Q 25.390625 66.40625 21.84375 63.234375 
Q 18.3125 60.0625 18.3125 54.390625 
z
" id="DejaVuSans-56"/>
       </defs>
       <use xlink:href="#DejaVuSans-56"/>
       <use x="63.623047" xlink:href="#DejaVuSans-48"/>
       <use x="127.246094" xlink:href="#DejaVuSans-48"/>
       <use x="190.869141" xlink:href="#DejaVuSans-48"/>
      </g>
     </g>
    </g>
    <g id="xtick_6">
     <g id="line2d_6">
      <g>
       <use style="stroke:#000000;stroke-width:0.8;" x="622.687096" xlink:href="#m36c8d26dfe" y="320.4"/>
      </g>
     </g>
     <g id="text_6">
      <!-- 10000 -->
      <g transform="translate(606.780846 334.998438)scale(0.1 -0.1)">
       <defs>
        <path d="M 12.40625 8.296875 
L 28.515625 8.296875 
L 28.515625 63.921875 
L 10.984375 60.40625 
L 10.984375 69.390625 
L 28.421875 72.90625 
L 38.28125 72.90625 
L 38.28125 8.296875 
L 54.390625 8.296875 
L 54.390625 0 
L 12.40625 0 
z
" id="DejaVuSans-49"/>
       </defs>
       <use xlink:href="#DejaVuSans-49"/>
       <use x="63.623047" xlink:href="#DejaVuSans-48"/>
       <use x="127.246094" xlink:href="#DejaVuSans-48"/>
       <use x="190.869141" xlink:href="#DejaVuSans-48"/>
       <use x="254.492188" xlink:href="#DejaVuSans-48"/>
      </g>
     </g>
    </g>
    <g id="text_7">
     <!-- Time (steps) -->
     <g transform="translate(337.855469 348.676562)scale(0.1 -0.1)">
      <defs>
       <path d="M -0.296875 72.90625 
L 61.375 72.90625 
L 61.375 64.59375 
L 35.5 64.59375 
L 35.5 0 
L 25.59375 0 
L 25.59375 64.59375 
L -0.296875 64.59375 
z
" id="DejaVuSans-84"/>
       <path d="M 9.421875 54.6875 
L 18.40625 54.6875 
L 18.40625 0 
L 9.421875 0 
z
M 9.421875 75.984375 
L 18.40625 75.984375 
L 18.40625 64.59375 
L 9.421875 64.59375 
z
" id="DejaVuSans-105"/>
       <path d="M 52 44.1875 
Q 55.375 50.25 60.0625 53.125 
Q 64.75 56 71.09375 56 
Q 79.640625 56 84.28125 50.015625 
Q 88.921875 44.046875 88.921875 33.015625 
L 88.921875 0 
L 79.890625 0 
L 79.890625 32.71875 
Q 79.890625 40.578125 77.09375 44.375 
Q 74.3125 48.1875 68.609375 48.1875 
Q 61.625 48.1875 57.5625 43.546875 
Q 53.515625 38.921875 53.515625 30.90625 
L 53.515625 0 
L 44.484375 0 
L 44.484375 32.71875 
Q 44.484375 40.625 41.703125 44.40625 
Q 38.921875 48.1875 33.109375 48.1875 
Q 26.21875 48.1875 22.15625 43.53125 
Q 18.109375 38.875 18.109375 30.90625 
L 18.109375 0 
L 9.078125 0 
L 9.078125 54.6875 
L 18.109375 54.6875 
L 18.109375 46.1875 
Q 21.1875 51.21875 25.484375 53.609375 
Q 29.78125 56 35.6875 56 
Q 41.65625 56 45.828125 52.96875 
Q 50 49.953125 52 44.1875 
z
" id="DejaVuSans-109"/>
       <path d="M 56.203125 29.59375 
L 56.203125 25.203125 
L 14.890625 25.203125 
Q 15.484375 15.921875 20.484375 11.0625 
Q 25.484375 6.203125 34.421875 6.203125 
Q 39.59375 6.203125 44.453125 7.46875 
Q 49.3125 8.734375 54.109375 11.28125 
L 54.109375 2.78125 
Q 49.265625 0.734375 44.1875 -0.34375 
Q 39.109375 -1.421875 33.890625 -1.421875 
Q 20.796875 -1.421875 13.15625 6.1875 
Q 5.515625 13.8125 5.515625 26.8125 
Q 5.515625 40.234375 12.765625 48.109375 
Q 20.015625 56 32.328125 56 
Q 43.359375 56 49.78125 48.890625 
Q 56.203125 41.796875 56.203125 29.59375 
z
M 47.21875 32.234375 
Q 47.125 39.59375 43.09375 43.984375 
Q 39.0625 48.390625 32.421875 48.390625 
Q 24.90625 48.390625 20.390625 44.140625 
Q 15.875 39.890625 15.1875 32.171875 
z
" id="DejaVuSans-101"/>
       <path id="DejaVuSans-32"/>
       <path d="M 31 75.875 
Q 24.46875 64.65625 21.28125 53.65625 
Q 18.109375 42.671875 18.109375 31.390625 
Q 18.109375 20.125 21.3125 9.0625 
Q 24.515625 -2 31 -13.1875 
L 23.1875 -13.1875 
Q 15.875 -1.703125 12.234375 9.375 
Q 8.59375 20.453125 8.59375 31.390625 
Q 8.59375 42.28125 12.203125 53.3125 
Q 15.828125 64.359375 23.1875 75.875 
z
" id="DejaVuSans-40"/>
       <path d="M 44.28125 53.078125 
L 44.28125 44.578125 
Q 40.484375 46.53125 36.375 47.5 
Q 32.28125 48.484375 27.875 48.484375 
Q 21.1875 48.484375 17.84375 46.4375 
Q 14.5 44.390625 14.5 40.28125 
Q 14.5 37.15625 16.890625 35.375 
Q 19.28125 33.59375 26.515625 31.984375 
L 29.59375 31.296875 
Q 39.15625 29.25 43.1875 25.515625 
Q 47.21875 21.78125 47.21875 15.09375 
Q 47.21875 7.46875 41.1875 3.015625 
Q 35.15625 -1.421875 24.609375 -1.421875 
Q 20.21875 -1.421875 15.453125 -0.5625 
Q 10.6875 0.296875 5.421875 2 
L 5.421875 11.28125 
Q 10.40625 8.6875 15.234375 7.390625 
Q 20.0625 6.109375 24.8125 6.109375 
Q 31.15625 6.109375 34.5625 8.28125 
Q 37.984375 10.453125 37.984375 14.40625 
Q 37.984375 18.0625 35.515625 20.015625 
Q 33.0625 21.96875 24.703125 23.78125 
L 21.578125 24.515625 
Q 13.234375 26.265625 9.515625 29.90625 
Q 5.8125 33.546875 5.8125 39.890625 
Q 5.8125 47.609375 11.28125 51.796875 
Q 16.75 56 26.8125 56 
Q 31.78125 56 36.171875 55.265625 
Q 40.578125 54.546875 44.28125 53.078125 
z
" id="DejaVuSans-115"/>
       <path d="M 18.3125 70.21875 
L 18.3125 54.6875 
L 36.8125 54.6875 
L 36.8125 47.703125 
L 18.3125 47.703125 
L 18.3125 18.015625 
Q 18.3125 11.328125 20.140625 9.421875 
Q 21.96875 7.515625 27.59375 7.515625 
L 36.8125 7.515625 
L 36.8125 0 
L 27.59375 0 
Q 17.1875 0 13.234375 3.875 
Q 9.28125 7.765625 9.28125 18.015625 
L 9.28125 47.703125 
L 2.6875 47.703125 
L 2.6875 54.6875 
L 9.28125 54.6875 
L 9.28125 70.21875 
z
" id="DejaVuSans-116"/>
       <path d="M 18.109375 8.203125 
L 18.109375 -20.796875 
L 9.078125 -20.796875 
L 9.078125 54.6875 
L 18.109375 54.6875 
L 18.109375 46.390625 
Q 20.953125 51.265625 25.265625 53.625 
Q 29.59375 56 35.59375 56 
Q 45.5625 56 51.78125 48.09375 
Q 58.015625 40.1875 58.015625 27.296875 
Q 58.015625 14.40625 51.78125 6.484375 
Q 45.5625 -1.421875 35.59375 -1.421875 
Q 29.59375 -1.421875 25.265625 0.953125 
Q 20.953125 3.328125 18.109375 8.203125 
z
M 48.6875 27.296875 
Q 48.6875 37.203125 44.609375 42.84375 
Q 40.53125 48.484375 33.40625 48.484375 
Q 26.265625 48.484375 22.1875 42.84375 
Q 18.109375 37.203125 18.109375 27.296875 
Q 18.109375 17.390625 22.1875 11.75 
Q 26.265625 6.109375 33.40625 6.109375 
Q 40.53125 6.109375 44.609375 11.75 
Q 48.6875 17.390625 48.6875 27.296875 
z
" id="DejaVuSans-112"/>
       <path d="M 8.015625 75.875 
L 15.828125 75.875 
Q 23.140625 64.359375 26.78125 53.3125 
Q 30.421875 42.28125 30.421875 31.390625 
Q 30.421875 20.453125 26.78125 9.375 
Q 23.140625 -1.703125 15.828125 -13.1875 
L 8.015625 -13.1875 
Q 14.5 -2 17.703125 9.0625 
Q 20.90625 20.125 20.90625 31.390625 
Q 20.90625 42.671875 17.703125 53.65625 
Q 14.5 64.65625 8.015625 75.875 
z
" id="DejaVuSans-41"/>
      </defs>
      <use xlink:href="#DejaVuSans-84"/>
      <use x="57.958984" xlink:href="#DejaVuSans-105"/>
      <use x="85.742188" xlink:href="#DejaVuSans-109"/>
      <use x="183.154297" xlink:href="#DejaVuSans-101"/>
      <use x="244.677734" xlink:href="#DejaVuSans-32"/>
      <use x="276.464844" xlink:href="#DejaVuSans-40"/>
      <use x="315.478516" xlink:href="#DejaVuSans-115"/>
      <use x="367.578125" xlink:href="#DejaVuSans-116"/>
      <use x="406.787109" xlink:href="#DejaVuSans-101"/>
      <use x="468.310547" xlink:href="#DejaVuSans-112"/>
      <use x="531.787109" xlink:href="#DejaVuSans-115"/>
      <use x="583.886719" xlink:href="#DejaVuSans-41"/>
     </g>
    </g>
   </g>
   <g id="matplotlib.axis_2">
    <g id="ytick_1">
     <g id="line2d_7">
      <defs>
       <path d="M 0 0 
L -3.5 0 
" id="m9994e87593" style="stroke:#000000;stroke-width:0.8;"/>
      </defs>
      <g>
       <use style="stroke:#000000;stroke-width:0.8;" x="90" xlink:href="#m9994e87593" y="307.8"/>
      </g>
     </g>
     <g id="text_8">
      <!-- 0 -->
      <g transform="translate(76.6375 311.599219)scale(0.1 -0.1)">
       <use xlink:href="#DejaVuSans-48"/>
      </g>
     </g>
    </g>
    <g id="ytick_2">
     <g id="line2d_8">
      <g>
       <use style="stroke:#000000;stroke-width:0.8;" x="90" xlink:href="#m9994e87593" y="275.508039"/>
      </g>
     </g>
     <g id="text_9">
      <!-- 250 -->
      <g transform="translate(63.9125 279.307258)scale(0.1 -0.1)">
       <defs>
        <path d="M 10.796875 72.90625 
L 49.515625 72.90625 
L 49.515625 64.59375 
L 19.828125 64.59375 
L 19.828125 46.734375 
Q 21.96875 47.46875 24.109375 47.828125 
Q 26.265625 48.1875 28.421875 48.1875 
Q 40.625 48.1875 47.75 41.5 
Q 54.890625 34.8125 54.890625 23.390625 
Q 54.890625 11.625 47.5625 5.09375 
Q 40.234375 -1.421875 26.90625 -1.421875 
Q 22.3125 -1.421875 17.546875 -0.640625 
Q 12.796875 0.140625 7.71875 1.703125 
L 7.71875 11.625 
Q 12.109375 9.234375 16.796875 8.0625 
Q 21.484375 6.890625 26.703125 6.890625 
Q 35.15625 6.890625 40.078125 11.328125 
Q 45.015625 15.765625 45.015625 23.390625 
Q 45.015625 31 40.078125 35.4375 
Q 35.15625 39.890625 26.703125 39.890625 
Q 22.75 39.890625 18.8125 39.015625 
Q 14.890625 38.140625 10.796875 36.28125 
z
" id="DejaVuSans-53"/>
       </defs>
       <use xlink:href="#DejaVuSans-50"/>
       <use x="63.623047" xlink:href="#DejaVuSans-53"/>
       <use x="127.246094" xlink:href="#DejaVuSans-48"/>
      </g>
     </g>
    </g>
    <g id="ytick_3">
     <g id="line2d_9">
      <g>
       <use style="stroke:#000000;stroke-width:0.8;" x="90" xlink:href="#m9994e87593" y="243.216078"/>
      </g>
     </g>
     <g id="text_10">
      <!-- 500 -->
      <g transform="translate(63.9125 247.015297)scale(0.1 -0.1)">
       <use xlink:href="#DejaVuSans-53"/>
       <use x="63.623047" xlink:href="#DejaVuSans-48"/>
       <use x="127.246094" xlink:href="#DejaVuSans-48"/>
      </g>
     </g>
    </g>
    <g id="ytick_4">
     <g id="line2d_10">
      <g>
       <use style="stroke:#000000;stroke-width:0.8;" x="90" xlink:href="#m9994e87593" y="210.924118"/>
      </g>
     </g>
     <g id="text_11">
      <!-- 750 -->
      <g transform="translate(63.9125 214.723336)scale(0.1 -0.1)">
       <defs>
        <path d="M 8.203125 72.90625 
L 55.078125 72.90625 
L 55.078125 68.703125 
L 28.609375 0 
L 18.3125 0 
L 43.21875 64.59375 
L 8.203125 64.59375 
z
" id="DejaVuSans-55"/>
       </defs>
       <use xlink:href="#DejaVuSans-55"/>
       <use x="63.623047" xlink:href="#DejaVuSans-53"/>
       <use x="127.246094" xlink:href="#DejaVuSans-48"/>
      </g>
     </g>
    </g>
    <g id="ytick_5">
     <g id="line2d_11">
      <g>
       <use style="stroke:#000000;stroke-width:0.8;" x="90" xlink:href="#m9994e87593" y="178.632157"/>
      </g>
     </g>
     <g id="text_12">
      <!-- 1000 -->
      <g transform="translate(57.55 182.431376)scale(0.1 -0.1)">
       <use xlink:href="#DejaVuSans-49"/>
       <use x="63.623047" xlink:href="#DejaVuSans-48"/>
       <use x="127.246094" xlink:href="#DejaVuSans-48"/>
       <use x="190.869141" xlink:href="#DejaVuSans-48"/>
      </g>
     </g>
    </g>
    <g id="ytick_6">
     <g id="line2d_12">
      <g>
       <use style="stroke:#000000;stroke-width:0.8;" x="90" xlink:href="#m9994e87593" y="146.340196"/>
      </g>
     </g>
     <g id="text_13">
      <!-- 1250 -->
      <g transform="translate(57.55 150.139415)scale(0.1 -0.1)">
       <use xlink:href="#DejaVuSans-49"/>
       <use x="63.623047" xlink:href="#DejaVuSans-50"/>
       <use x="127.246094" xlink:href="#DejaVuSans-53"/>
       <use x="190.869141" xlink:href="#DejaVuSans-48"/>
      </g>
     </g>
    </g>
    <g id="ytick_7">
     <g id="line2d_13">
      <g>
       <use style="stroke:#000000;stroke-width:0.8;" x="90" xlink:href="#m9994e87593" y="114.048235"/>
      </g>
     </g>
     <g id="text_14">
      <!-- 1500 -->
      <g transform="translate(57.55 117.847454)scale(0.1 -0.1)">
       <use xlink:href="#DejaVuSans-49"/>
       <use x="63.623047" xlink:href="#DejaVuSans-53"/>
       <use x="127.246094" xlink:href="#DejaVuSans-48"/>
       <use x="190.869141" xlink:href="#DejaVuSans-48"/>
      </g>
     </g>
    </g>
    <g id="ytick_8">
     <g id="line2d_14">
      <g>
       <use style="stroke:#000000;stroke-width:0.8;" x="90" xlink:href="#m9994e87593" y="81.756274"/>
      </g>
     </g>
     <g id="text_15">
      <!-- 1750 -->
      <g transform="translate(57.55 85.555493)scale(0.1 -0.1)">
       <use xlink:href="#DejaVuSans-49"/>
       <use x="63.623047" xlink:href="#DejaVuSans-55"/>
       <use x="127.246094" xlink:href="#DejaVuSans-53"/>
       <use x="190.869141" xlink:href="#DejaVuSans-48"/>
      </g>
     </g>
    </g>
    <g id="ytick_9">
     <g id="line2d_15">
      <g>
       <use style="stroke:#000000;stroke-width:0.8;" x="90" xlink:href="#m9994e87593" y="49.464314"/>
      </g>
     </g>
     <g id="text_16">
      <!-- 2000 -->
      <g transform="translate(57.55 53.263532)scale(0.1 -0.1)">
       <use xlink:href="#DejaVuSans-50"/>
       <use x="63.623047" xlink:href="#DejaVuSans-48"/>
       <use x="127.246094" xlink:href="#DejaVuSans-48"/>
       <use x="190.869141" xlink:href="#DejaVuSans-48"/>
      </g>
     </g>
    </g>
    <g id="text_17">
     <!-- RMSE(m) -->
     <g transform="translate(51.470312 204.69375)rotate(-90)scale(0.1 -0.1)">
      <defs>
       <path d="M 44.390625 34.1875 
Q 47.5625 33.109375 50.5625 29.59375 
Q 53.5625 26.078125 56.59375 19.921875 
L 66.609375 0 
L 56 0 
L 46.6875 18.703125 
Q 43.0625 26.03125 39.671875 28.421875 
Q 36.28125 30.8125 30.421875 30.8125 
L 19.671875 30.8125 
L 19.671875 0 
L 9.8125 0 
L 9.8125 72.90625 
L 32.078125 72.90625 
Q 44.578125 72.90625 50.734375 67.671875 
Q 56.890625 62.453125 56.890625 51.90625 
Q 56.890625 45.015625 53.6875 40.46875 
Q 50.484375 35.9375 44.390625 34.1875 
z
M 19.671875 64.796875 
L 19.671875 38.921875 
L 32.078125 38.921875 
Q 39.203125 38.921875 42.84375 42.21875 
Q 46.484375 45.515625 46.484375 51.90625 
Q 46.484375 58.296875 42.84375 61.546875 
Q 39.203125 64.796875 32.078125 64.796875 
z
" id="DejaVuSans-82"/>
       <path d="M 9.8125 72.90625 
L 24.515625 72.90625 
L 43.109375 23.296875 
L 61.8125 72.90625 
L 76.515625 72.90625 
L 76.515625 0 
L 66.890625 0 
L 66.890625 64.015625 
L 48.09375 14.015625 
L 38.1875 14.015625 
L 19.390625 64.015625 
L 19.390625 0 
L 9.8125 0 
z
" id="DejaVuSans-77"/>
       <path d="M 53.515625 70.515625 
L 53.515625 60.890625 
Q 47.90625 63.578125 42.921875 64.890625 
Q 37.9375 66.21875 33.296875 66.21875 
Q 25.25 66.21875 20.875 63.09375 
Q 16.5 59.96875 16.5 54.203125 
Q 16.5 49.359375 19.40625 46.890625 
Q 22.3125 44.4375 30.421875 42.921875 
L 36.375 41.703125 
Q 47.40625 39.59375 52.65625 34.296875 
Q 57.90625 29 57.90625 20.125 
Q 57.90625 9.515625 50.796875 4.046875 
Q 43.703125 -1.421875 29.984375 -1.421875 
Q 24.8125 -1.421875 18.96875 -0.25 
Q 13.140625 0.921875 6.890625 3.21875 
L 6.890625 13.375 
Q 12.890625 10.015625 18.65625 8.296875 
Q 24.421875 6.59375 29.984375 6.59375 
Q 38.421875 6.59375 43.015625 9.90625 
Q 47.609375 13.234375 47.609375 19.390625 
Q 47.609375 24.75 44.3125 27.78125 
Q 41.015625 30.8125 33.5 32.328125 
L 27.484375 33.5 
Q 16.453125 35.6875 11.515625 40.375 
Q 6.59375 45.0625 6.59375 53.421875 
Q 6.59375 63.09375 13.40625 68.65625 
Q 20.21875 74.21875 32.171875 74.21875 
Q 37.3125 74.21875 42.625 73.28125 
Q 47.953125 72.359375 53.515625 70.515625 
z
" id="DejaVuSans-83"/>
       <path d="M 9.8125 72.90625 
L 55.90625 72.90625 
L 55.90625 64.59375 
L 19.671875 64.59375 
L 19.671875 43.015625 
L 54.390625 43.015625 
L 54.390625 34.71875 
L 19.671875 34.71875 
L 19.671875 8.296875 
L 56.78125 8.296875 
L 56.78125 0 
L 9.8125 0 
z
" id="DejaVuSans-69"/>
      </defs>
      <use xlink:href="#DejaVuSans-82"/>
      <use x="69.482422" xlink:href="#DejaVuSans-77"/>
      <use x="155.761719" xlink:href="#DejaVuSans-83"/>
      <use x="219.238281" xlink:href="#DejaVuSans-69"/>
      <use x="282.421875" xlink:href="#DejaVuSans-40"/>
      <use x="321.435547" xlink:href="#DejaVuSans-109"/>
      <use x="418.847656" xlink:href="#DejaVuSans-41"/>
     </g>
    </g>
   </g>
   <g id="line2d_16">
    <path clip-path="url(#p28f6adccad)" d="M 115.363636 307.8 
L 115.66803 307.762015 
L 116.073889 307.79208 
L 117.59586 307.788614 
L 118.711971 307.799228 
L 119.067098 307.779581 
L 120.183209 307.774085 
L 126.220358 307.790918 
L 126.879879 307.797717 
L 128.300385 307.787552 
L 128.85844 307.798348 
L 129.365764 307.792513 
L 130.380411 307.794015 
L 130.684805 307.792952 
L 131.242861 307.737205 
L 131.293593 307.560336 
L 131.344325 307.763546 
L 132.003846 307.744961 
L 144.484003 307.594998 
L 144.6362 307.526532 
L 144.788397 307.554903 
L 147.122085 307.543632 
L 153.920219 307.606199 
L 154.021684 307.562574 
L 154.123149 307.50206 
L 154.173881 307.59602 
L 154.985599 307.592526 
L 156.862695 307.594083 
L 157.065625 307.640054 
L 157.471484 307.674167 
L 157.725145 307.64828 
L 164.015956 307.585984 
L 164.117421 307.429396 
L 164.269618 307.54592 
L 170.763358 307.519953 
L 170.81409 307.390893 
L 170.966288 307.655607 
L 171.169217 307.604433 
L 177.662957 307.584313 
L 177.71369 307.723109 
L 177.764422 307.599949 
L 177.865887 307.526398 
L 177.967351 307.796033 
L 178.018084 307.710486 
L 178.728336 307.698573 
L 193.694379 307.599221 
L 193.745111 307.787578 
L 193.795843 307.719873 
L 194.404631 307.725045 
L 198.311022 307.756984 
L 198.615416 307.744325 
L 200.64471 307.782073 
L 201.152033 307.789988 
L 201.456427 307.788979 
L 202.065216 307.789811 
L 202.775468 307.788919 
L 205.464283 307.514921 
L 205.870142 307.292516 
L 206.022339 307.6442 
L 206.123803 307.484329 
L 206.631127 306.848867 
L 207.13845 306.610274 
L 207.544309 306.617228 
L 209.421406 307.072945 
L 216.016611 307.39326 
L 218.045905 307.406364 
L 220.836184 307.417677 
L 233.772932 307.436651 
L 245.999427 307.442908 
L 248.840439 307.435358 
L 261.371328 307.423521 
L 264.516733 307.427681 
L 274.916864 307.533363 
L 275.119794 307.750462 
L 275.170526 307.661533 
L 275.271991 307.596453 
L 275.373456 307.717712 
L 275.424188 307.676204 
L 275.67785 307.566877 
L 275.779314 307.53377 
L 275.880779 307.782547 
L 275.931511 307.734629 
L 276.286638 307.210967 
L 276.33737 307.245001 
L 276.540299 307.420184 
L 277.504214 306.967974 
L 278.569593 306.289741 
L 278.72179 306.183766 
L 278.772523 306.101575 
L 278.823255 306.168507 
L 279.279846 305.880487 
L 280.44669 305.201915 
L 284.860404 303.143927 
L 285.063334 303.132934 
L 285.875051 302.800394 
L 287.549219 302.289512 
L 287.853613 302.198693 
L 288.716063 301.914034 
L 289.172654 301.768435 
L 289.730709 301.620273 
L 290.085836 301.521128 
L 290.694624 301.350536 
L 291.04975 301.252362 
L 292.11513 300.977573 
L 292.571721 300.855204 
L 293.789297 300.518629 
L 294.042959 300.468635 
L 294.854676 300.314275 
L 295.514197 300.15199 
L 296.478111 299.958558 
L 297.442026 299.718839 
L 297.797152 299.631656 
L 298.456673 299.514142 
L 301.805008 298.80489 
L 302.160134 298.732363 
L 302.464528 298.641417 
L 305.356272 298.130612 
L 305.609934 298.086588 
L 305.914328 297.98756 
L 306.117257 297.975321 
L 306.979707 297.816515 
L 307.487031 297.742188 
L 307.791425 297.705588 
L 308.653874 297.597737 
L 312.052942 297.04697 
L 312.205139 297.041709 
L 312.610997 297.003965 
L 316.618853 296.644949 
L 316.77105 296.652964 
L 317.126176 296.486603 
L 317.278373 296.541987 
L 317.582767 296.523121 
L 318.445217 296.553973 
L 318.49595 296.495439 
L 318.546682 296.581678 
L 318.952541 296.560004 
L 319.104738 296.614041 
L 319.662794 296.533358 
L 319.916455 296.45616 
L 320.119385 296.509647 
L 320.271582 296.405779 
L 320.423779 296.51888 
L 321.387693 296.444493 
L 321.53989 296.459997 
L 321.74282 296.47541 
L 322.300876 296.46245 
L 322.706734 296.371213 
L 322.909664 296.422512 
L 323.772114 296.399107 
L 323.822846 296.356251 
L 323.924311 296.450908 
L 323.975043 296.426556 
L 324.330169 296.407296 
L 324.482366 296.502412 
L 325.750675 296.63373 
L 325.85214 296.718638 
L 326.004337 296.678629 
L 326.257999 296.75843 
L 327.526307 296.801646 
L 327.729237 296.806508 
L 327.881434 296.830186 
L 328.033631 296.905385 
L 328.23656 296.862186 
L 328.287292 296.7934 
L 328.439489 296.908579 
L 328.591686 296.960562 
L 328.845348 296.972134 
L 328.997545 296.911095 
L 329.149742 296.962242 
L 329.454136 296.998287 
L 329.606333 297.014678 
L 330.012192 297.150354 
L 330.468783 297.168157 
L 330.62098 297.25883 
L 330.82391 297.312017 
L 331.534163 297.165261 
L 331.584895 297.482003 
L 331.635627 297.331615 
L 332.295148 297.345704 
L 332.34588 297.625644 
L 332.447345 297.573076 
L 332.548809 297.568012 
L 332.599542 297.461322 
L 332.701006 297.884029 
L 332.853204 297.510274 
L 333.005401 297.689863 
L 333.360527 297.688861 
L 333.512724 297.773663 
L 334.172244 297.81456 
L 334.273709 298.009215 
L 334.324442 297.99152 
L 334.578103 298.075293 
L 335.034694 298.186422 
L 335.136159 298.191989 
L 335.288356 298.158354 
L 335.339088 298.024332 
L 335.389821 298.349915 
L 335.440553 298.275112 
L 335.79568 298.319371 
L 335.947877 298.488027 
L 336.201538 298.508044 
L 336.353735 298.595695 
L 336.556665 298.566017 
L 336.607397 298.712154 
L 336.658129 298.661537 
L 337.165453 298.691855 
L 337.419115 298.698558 
L 337.571312 298.837572 
L 337.774241 298.921475 
L 337.97717 298.711521 
L 338.129367 298.847763 
L 338.636691 299.069609 
L 338.941085 299.074887 
L 339.70207 299.294763 
L 339.905 299.332844 
L 340.006464 299.239718 
L 340.209394 299.404222 
L 340.615252 299.486463 
L 340.767449 299.542005 
L 342.137223 299.78909 
L 342.187955 299.937272 
L 342.238688 299.874829 
L 342.28942 299.833802 
L 342.340152 299.916584 
L 342.796743 300.011424 
L 342.898208 299.978988 
L 342.94894 300.211379 
L 343.050405 300.176278 
L 343.202602 300.224117 
L 343.506996 300.246569 
L 343.659193 300.186569 
L 343.862123 300.308093 
L 344.065052 300.348343 
L 344.267981 300.463656 
L 344.67384 300.472969 
L 344.724572 300.277121 
L 344.775305 300.890574 
L 344.826037 300.584336 
L 344.978234 300.572031 
L 345.079699 300.512769 
L 345.231896 300.612246 
L 345.282628 300.533649 
L 345.333361 300.650882 
L 345.891416 300.730849 
L 346.043613 300.730008 
L 346.652402 300.940057 
L 346.703134 300.835901 
L 346.753866 300.981001 
L 346.956796 301.045697 
L 347.311922 301.107337 
L 347.464119 301.269501 
L 347.565584 301.214514 
L 347.717781 301.373773 
L 347.92071 301.49516 
L 348.072907 301.562991 
L 348.428034 301.692157 
L 348.478766 301.633133 
L 348.580231 301.748667 
L 348.630963 301.722929 
L 348.681695 301.671328 
L 348.732428 301.747467 
L 349.138287 301.894484 
L 349.64561 301.981125 
L 349.696342 301.842499 
L 349.848539 302.05924 
L 350.000736 302.093417 
L 350.203666 302.143044 
L 350.355863 302.205158 
L 350.406595 302.147083 
L 350.558792 302.283994 
L 351.522707 302.613781 
L 351.674904 302.791629 
L 351.827101 302.777935 
L 352.03003 302.927234 
L 352.182227 302.659923 
L 352.23296 302.55404 
L 352.435889 302.851688 
L 353.298339 302.976289 
L 353.450536 303.154442 
L 354.008592 303.277578 
L 354.211521 303.42126 
L 354.414451 303.376374 
L 354.566648 303.546696 
L 354.668112 303.579952 
L 354.820309 303.635524 
L 354.921774 303.634093 
L 355.073971 303.783724 
L 355.2769 303.721196 
L 355.429097 303.897678 
L 356.545209 304.189211 
L 356.595941 304.006773 
L 356.697406 304.343458 
L 356.748138 304.326015 
L 357.0018 304.325864 
L 357.153997 304.527 
L 357.458391 304.486974 
L 357.509124 304.379908 
L 357.559856 304.516139 
L 357.762785 304.669769 
L 358.016447 304.70953 
L 358.067179 304.704088 
L 358.219376 304.818611 
L 358.422306 304.824721 
L 358.574503 304.877807 
L 358.625235 304.905246 
L 358.777432 304.756663 
L 358.929629 304.9497 
L 359.183291 304.973283 
L 359.38622 305.17755 
L 359.58915 305.124228 
L 359.639882 305.083872 
L 359.792079 305.255052 
L 359.944276 305.113899 
L 360.096473 305.325655 
L 360.299403 305.30755 
L 360.400867 305.267893 
L 360.502332 305.921618 
L 360.553064 305.693449 
L 360.958923 305.766101 
L 361.364782 305.876966 
L 361.415514 305.820738 
L 361.466247 305.911464 
L 361.618444 305.881619 
L 361.719908 305.923647 
L 362.024302 306.045673 
L 362.075035 305.961254 
L 362.227232 306.098826 
L 362.379429 305.981976 
L 362.531626 305.961938 
L 362.582358 306.010362 
L 362.734555 307.209266 
L 362.785288 306.732655 
L 362.937485 306.297144 
L 363.038949 305.832453 
L 363.191146 303.25069 
L 363.241879 303.609124 
L 363.444808 304.654503 
L 363.49554 304.670336 
L 363.647738 304.449199 
L 363.749202 304.772637 
L 363.799935 305.018275 
L 363.850667 305.001506 
L 364.205793 304.622873 
L 364.256526 304.706802 
L 364.713117 305.149852 
L 364.814581 304.90392 
L 365.017511 303.982547 
L 365.271173 302.696128 
L 365.879961 301.449183 
L 366.184355 301.185378 
L 366.640946 301.019303 
L 367.351199 300.935658 
L 369.177563 300.926279 
L 371.003928 300.945886 
L 374.200065 300.978126 
L 426.048523 301.119386 
L 429.041731 301.11823 
L 430.918828 301.115969 
L 445.073153 301.142388 
L 448.421488 301.150448 
L 448.979543 301.120793 
L 449.283937 300.692193 
L 449.33467 300.724938 
L 449.486867 301.249337 
L 449.537599 301.22896 
L 449.841993 300.741877 
L 450.044923 301.195255 
L 450.095655 301.107249 
L 450.400049 300.742661 
L 450.755176 301.5333 
L 450.958105 301.650781 
L 451.262499 301.952093 
L 451.71909 302.388602 
L 451.972752 302.638078 
L 452.530808 303.233309 
L 453.951313 304.58661 
L 454.30644 304.923481 
L 454.560101 305.142158 
L 454.915228 305.455503 
L 455.067425 305.626649 
L 455.676213 306.166014 
L 457.502578 307.779389 
L 458.669421 306.780826 
L 460.14066 305.501407 
L 460.80018 304.92185 
L 462.930939 303.202318 
L 464.199247 302.146532 
L 464.808035 301.6814 
L 465.822682 300.893106 
L 465.974879 300.812917 
L 467.344653 299.721855 
L 468.15637 299.150091 
L 468.511497 298.824205 
L 469.779805 297.891408 
L 470.490058 297.38178 
L 470.591523 297.303203 
L 473.584731 295.164216 
L 474.244252 294.726867 
L 475.614025 293.823499 
L 476.222813 293.412324 
L 476.527207 293.251718 
L 477.491122 292.660466 
L 477.846248 292.442548 
L 478.049178 292.299671 
L 478.302839 292.191529 
L 478.556501 292.055943 
L 478.810163 291.889776 
L 478.911628 291.811638 
L 479.165289 291.620038 
L 479.368219 291.564798 
L 479.62188 291.409716 
L 480.281401 291.080219 
L 480.991654 290.713866 
L 481.245315 290.581859 
L 481.397512 290.556209 
L 481.701907 290.321176 
L 481.854104 290.257473 
L 484.187792 289.280643 
L 484.390721 289.163236 
L 484.695115 289.051773 
L 484.898044 288.989606 
L 485.050241 288.918751 
L 485.405368 288.790238 
L 485.65903 288.736301 
L 486.014156 288.548171 
L 486.267818 288.458295 
L 486.470747 288.355714 
L 487.079535 288.292579 
L 487.181 288.202514 
L 487.231732 288.235873 
L 488.449309 287.786766 
L 488.550773 287.730156 
L 488.804435 287.736077 
L 489.108829 287.659626 
L 489.56542 287.560123 
L 489.76835 287.588626 
L 489.920547 287.524013 
L 491.188855 287.320331 
L 491.543982 287.313684 
L 491.696179 287.285853 
L 492.254235 287.212986 
L 492.406432 287.211044 
L 496.515752 287.084271 
L 496.667949 287.176031 
L 497.12454 287.154673 
L 497.682596 287.119494 
L 498.088454 287.127074 
L 498.240651 287.213989 
L 498.342116 287.23752 
L 498.798707 287.276322 
L 498.900172 287.294718 
L 499.103101 287.323313 
L 499.356763 287.326011 
L 499.965551 287.425735 
L 500.320678 287.433029 
L 500.878733 287.424981 
L 501.639719 287.45974 
L 501.791916 287.409972 
L 508.031994 288.332379 
L 508.133459 288.420891 
L 508.184191 288.378993 
L 508.742247 288.514043 
L 509.198838 288.470188 
L 509.351035 288.638385 
L 509.401767 288.52094 
L 509.553964 288.522398 
L 509.756894 288.634822 
L 510.162753 288.6838 
L 510.213485 288.723726 
L 510.264217 288.648821 
L 510.619344 288.736559 
L 510.670076 288.837353 
L 510.720808 288.749078 
L 510.923738 288.700868 
L 510.97447 288.758108 
L 511.025203 288.685779 
L 511.1774 288.655469 
L 511.431061 288.74551 
L 511.532526 288.742625 
L 511.786188 288.836816 
L 511.938385 288.802255 
L 512.293511 288.815803 
L 512.344244 288.883653 
L 512.394976 288.802372 
L 513.155961 288.906579 
L 513.257426 288.939213 
L 513.308158 289.01096 
L 513.35889 288.93399 
L 513.511087 288.921436 
L 513.764749 288.997039 
L 513.967679 288.972891 
L 514.272073 289.075399 
L 514.677931 289.164434 
L 514.880861 289.12974 
L 515.08379 289.191635 
L 515.235987 289.207066 
L 515.591114 289.26645 
L 515.743311 289.387123 
L 515.895508 289.297061 
L 516.098437 289.338591 
L 516.250634 289.372449 
L 516.605761 289.437161 
L 517.113084 289.504711 
L 517.214549 289.601294 
L 517.265281 289.565936 
L 517.823337 289.585982 
L 517.975534 289.627631 
L 518.279928 289.686656 
L 518.432125 289.721089 
L 518.584322 289.754648 
L 518.685787 289.858924 
L 518.736519 289.80165 
L 518.939448 289.730423 
L 519.040913 289.750212 
L 519.19311 289.727832 
L 519.39604 289.82144 
L 519.497504 289.908618 
L 519.548237 289.845889 
L 520.309222 289.897631 
L 520.512151 290.02156 
L 520.765813 290.011813 
L 520.968742 289.984995 
L 521.222404 290.114206 
L 521.425333 290.09235 
L 521.57753 290.077598 
L 521.678995 290.102664 
L 521.78046 290.139051 
L 521.881925 290.132408 
L 521.932657 290.180269 
L 521.983389 290.094726 
L 522.389248 290.164354 
L 522.541445 290.162666 
L 523.353163 290.302754 
L 523.50536 290.314627 
L 524.114148 291.26171 
L 524.16488 291.139468 
L 524.317077 289.345521 
L 524.36781 289.728439 
L 524.520007 290.0548 
L 524.875133 291.243114 
L 525.02733 290.859657 
L 525.078062 290.88565 
L 525.179527 291.010416 
L 525.230259 290.961079 
L 525.331724 289.956344 
L 525.433189 288.975579 
L 525.585386 289.578785 
L 525.686851 289.479391 
L 526.600033 292.234562 
L 527.817609 298.042098 
L 529.694706 304.524519 
L 530.760085 307.721375 
L 531.368873 306.168603 
L 532.38352 303.491973 
L 535.528926 296.612469 
L 536.036249 295.707695 
L 536.746502 294.311229 
L 539.232387 290.64714 
L 540.500696 289.424239 
L 541.210948 289.049306 
L 542.124131 289.007953 
L 542.529989 289.33622 
L 542.682186 289.500409 
L 544.05196 292.357869 
L 545.472465 297.185582 
L 545.726127 298.048699 
L 545.929057 298.61119 
L 546.233451 299.309359 
L 546.284183 299.334497 
L 546.537845 300.012171 
L 546.639309 300.183324 
L 548.364209 302.741784 
L 548.567139 303.067441 
L 548.770068 303.304606 
L 549.277391 304.313829 
L 549.429588 304.315038 
L 549.784715 304.805154 
L 549.936912 304.771849 
L 550.241306 305.1401 
L 550.494968 305.484924 
L 550.647165 305.621668 
L 550.850094 305.755306 
L 550.951559 305.782606 
L 551.357418 306.189402 
L 551.458882 306.235059 
L 552.016938 306.803299 
L 552.321332 306.914616 
L 552.93012 307.328339 
L 553.183782 307.590154 
L 553.488176 307.734731 
L 553.79257 307.607814 
L 553.944767 307.533894 
L 554.046232 307.483244 
L 554.350626 307.25941 
L 554.604288 307.251889 
L 554.857949 307.082325 
L 555.365273 307.03323 
L 555.720399 306.797171 
L 555.974061 306.677826 
L 556.532117 306.514515 
L 556.735046 306.509369 
L 558.713608 306.156072 
L 559.018002 306.1059 
L 559.576058 305.987484 
L 559.880452 305.978935 
L 560.48924 305.847325 
L 560.742902 305.861607 
L 561.453154 305.762941 
L 563.279519 305.642386 
L 563.533181 305.601044 
L 563.939039 305.577191 
L 564.801489 305.583517 
L 565.105883 305.547759 
L 565.410277 305.521698 
L 566.221995 305.493933 
L 566.881515 305.452945 
L 567.338107 305.438637 
L 567.946895 305.417877 
L 568.555683 305.402508 
L 569.316668 305.437351 
L 570.179118 305.391267 
L 573.324523 305.367707 
L 573.67965 305.351052 
L 574.136241 305.341775 
L 581.441699 305.376 
L 581.69536 305.370264 
L 582.55781 305.382314 
L 583.115866 305.372605 
L 584.079781 305.369797 
L 584.790034 305.383234 
L 585.043695 305.403919 
L 585.855413 305.414603 
L 586.717863 305.408598 
L 587.631045 305.4197 
L 588.442762 305.46338 
L 588.899354 305.463537 
L 591.689633 305.449113 
L 592.044759 305.472767 
L 593.211603 305.484043 
L 593.566729 305.463858 
L 593.871123 305.484501 
L 594.276982 305.489654 
L 603.814663 305.579411 
L 604.068325 305.57709 
L 604.82931 305.588578 
L 605.133704 305.603166 
L 606.249816 305.61265 
L 606.807872 305.609237 
L 607.721054 305.623027 
L 608.025448 305.631857 
L 609.496686 305.643183 
L 610.308404 305.662902 
L 612.1855 305.64653 
L 612.895753 305.654033 
L 613.555274 305.686996 
L 614.569921 305.658291 
L 616.091891 305.668986 
L 616.396285 305.68523 
L 617.3602 305.699082 
L 622.636364 305.758182 
L 622.636364 305.758182 
" style="fill:none;stroke:#ff0000;stroke-linecap:square;stroke-width:1.5;"/>
   </g>
   <g id="line2d_17">
    <path clip-path="url(#p28f6adccad)" d="M 115.363636 307.8 
L 115.66803 307.762015 
L 116.073889 307.79208 
L 117.59586 307.788614 
L 118.711971 307.799228 
L 119.067098 307.779581 
L 120.183209 307.774085 
L 126.220358 307.790639 
L 126.879879 307.797298 
L 128.554046 307.77867 
L 130.78627 307.780705 
L 131.44579 307.667591 
L 131.496522 307.482319 
L 131.648719 307.791318 
L 132.815563 307.784685 
L 141.592259 307.734382 
L 141.642992 307.609683 
L 141.693724 307.747026 
L 142.403977 307.758105 
L 149.151379 307.658149 
L 149.202111 307.521439 
L 149.252843 307.698186 
L 149.658702 307.679631 
L 161.428606 307.743663 
L 162.291056 307.742883 
L 163.66083 307.719933 
L 163.711562 307.65277 
L 163.762294 307.694683 
L 163.965224 307.754443 
L 164.066688 307.429162 
L 164.117421 307.458443 
L 164.269618 307.542192 
L 164.979871 307.556741 
L 167.77015 307.564492 
L 182.330333 307.707771 
L 182.381065 307.645473 
L 182.431798 307.70878 
L 183.395712 307.701518 
L 184.816218 307.634807 
L 184.917683 307.451851 
L 185.06988 307.599089 
L 186.642582 307.59984 
L 195.926602 307.545837 
L 195.977334 307.740547 
L 196.028066 307.66166 
L 196.53539 307.650639 
L 204.398904 307.6288 
L 204.500368 307.617711 
L 204.703298 307.661146 
L 204.855495 307.616622 
L 205.058424 307.684355 
L 205.312086 307.573937 
L 205.464283 307.698985 
L 205.565747 307.754238 
L 205.870142 307.428736 
L 206.022339 306.908349 
L 206.428197 306.422875 
L 206.986253 305.977052 
L 207.493577 305.873283 
L 208.356027 306.042263 
L 209.928729 306.564032 
L 211.552164 306.904025 
L 215.56002 307.251599 
L 216.980525 307.272979 
L 221.698633 307.276672 
L 223.017674 307.273544 
L 224.184518 307.271864 
L 226.315277 307.279499 
L 228.902627 307.286574 
L 237.527125 307.279421 
L 238.744702 307.283403 
L 239.607152 307.291913 
L 255.384911 307.270444 
L 257.008346 307.26306 
L 258.073726 307.265445 
L 259.443499 307.270279 
L 261.168399 307.259433 
L 261.675722 307.258982 
L 264.161607 307.265795 
L 264.922592 307.251635 
L 265.582113 307.275424 
L 266.647492 307.263734 
L 269.742165 307.263187 
L 271.56853 307.2536 
L 272.481712 307.264379 
L 273.699288 307.258546 
L 274.460273 307.26551 
L 275.170526 307.139102 
L 275.322723 307.161615 
L 275.576385 307.04255 
L 275.830047 307.128734 
L 276.083708 307.046038 
L 276.388102 307.151414 
L 277.402749 306.663161 
L 283.490631 304.357977 
L 285.164798 303.833489 
L 286.534572 303.409403 
L 287.346289 303.172637 
L 289.121921 302.640331 
L 290.897553 302.132036 
L 292.165862 301.789041 
L 293.332706 301.454302 
L 294.702479 301.097548 
L 296.173717 300.715393 
L 296.934703 300.523579 
L 297.695688 300.288393 
L 298.253744 300.165543 
L 299.522052 299.820764 
L 301.044023 299.43757 
L 301.805008 299.25394 
L 302.312331 299.098317 
L 304.646019 298.501111 
L 305.204075 298.346152 
L 305.407004 298.32738 
L 308.045086 297.602053 
L 308.298748 297.536972 
L 309.972915 297.092707 
L 310.835365 296.837278 
L 311.697815 296.613262 
L 312.306603 296.437546 
L 316.618853 295.205866 
L 316.923247 295.103572 
L 317.329106 294.970138 
L 321.286229 293.759902 
L 321.895017 293.573061 
L 323.112593 293.143985 
L 323.315522 293.091141 
L 324.634563 292.646727 
L 325.243352 292.457869 
L 327.069716 291.831128 
L 327.37411 291.721243 
L 335.034694 288.816462 
L 335.491285 288.60939 
L 335.897144 288.456397 
L 336.201538 288.308564 
L 336.404468 288.232571 
L 337.165453 287.908873 
L 346.652402 283.411803 
L 346.906063 283.238853 
L 347.464119 282.978458 
L 347.869978 282.753924 
L 348.935357 282.19921 
L 353.602733 279.405273 
L 353.75493 279.325093 
L 354.921774 278.620461 
L 355.073971 278.579391 
L 355.936421 277.941564 
L 356.190083 277.841554 
L 356.545209 277.553961 
L 356.697406 277.437219 
L 356.951068 277.256376 
L 359.335488 275.521812 
L 359.487685 275.458583 
L 359.893544 275.076945 
L 359.995009 274.973425 
L 360.096473 274.976524 
L 361.364782 274.134377 
L 361.669176 273.837713 
L 362.328697 273.593651 
L 362.633091 273.82091 
L 362.734555 273.7941 
L 362.83602 273.899518 
L 362.886752 273.810427 
L 362.937485 273.940243 
L 363.038949 273.871447 
L 363.191146 273.700706 
L 363.292611 273.944641 
L 363.343343 273.907374 
L 363.444808 273.795831 
L 363.49554 273.833336 
L 363.69847 273.92805 
L 363.901399 273.644637 
L 364.408723 274.259588 
L 364.966778 280.92126 
L 365.321905 281.786422 
L 365.677031 281.904227 
L 366.032158 281.684676 
L 366.793143 280.834547 
L 367.503396 280.036908 
L 368.974634 278.818127 
L 370.19221 278.155185 
L 371.206857 277.84815 
L 372.322969 277.64068 
L 373.489813 277.543788 
L 375.011783 277.55165 
L 376.280092 277.616629 
L 377.599133 277.699219 
L 378.258653 277.712025 
L 379.019638 277.79361 
L 397.029621 278.468055 
L 397.638409 278.463772 
L 398.602324 278.479274 
L 399.363309 278.493034 
L 402.40725 278.521624 
L 403.320432 278.521423 
L 448.675149 277.700603 
L 449.13174 277.41532 
L 449.385402 277.643706 
L 449.639064 277.362966 
L 449.841993 277.662188 
L 449.892726 277.622587 
L 450.146387 277.310834 
L 450.450781 277.725593 
L 450.501514 277.688188 
L 450.907373 276.919667 
L 462.372883 256.241801 
L 463.945585 253.458109 
L 472.062761 238.354721 
L 478.810163 224.018515 
L 479.165289 223.25105 
L 479.723345 221.913082 
L 484.390721 209.935487 
L 486.014156 205.316099 
L 488.804435 196.574467 
L 494.334261 176.273241 
L 494.790852 174.365532 
L 497.682596 162.647926 
L 498.900172 157.61338 
L 499.965551 153.159913 
L 502.147042 144.440585 
L 502.806562 141.671177 
L 503.973406 136.994834 
L 505.14025 132.103723 
L 523.860486 55.8 
L 524.012683 56.037051 
L 524.215612 56.303217 
L 524.621471 56.210076 
L 524.824401 56.215179 
L 525.02733 56.168923 
L 525.331724 56.232041 
L 525.686851 56.188248 
L 527.310286 56.199588 
L 527.868341 56.219147 
L 528.578594 56.231356 
L 529.288847 56.247369 
L 529.9991 56.255482 
L 567.287374 56.602025 
L 586.66713 56.600955 
L 610.511333 56.543963 
L 616.091891 56.541398 
L 622.636364 56.530224 
L 622.636364 56.530224 
" style="fill:none;stroke:#008000;stroke-linecap:square;stroke-width:1.5;"/>
   </g>
   <g id="patch_3">
    <path d="M 90 320.4 
L 90 43.2 
" style="fill:none;stroke:#000000;stroke-linecap:square;stroke-linejoin:miter;stroke-width:0.8;"/>
   </g>
   <g id="patch_4">
    <path d="M 648 320.4 
L 648 43.2 
" style="fill:none;stroke:#000000;stroke-linecap:square;stroke-linejoin:miter;stroke-width:0.8;"/>
   </g>
   <g id="patch_5">
    <path d="M 90 320.4 
L 648 320.4 
" style="fill:none;stroke:#000000;stroke-linecap:square;stroke-linejoin:miter;stroke-width:0.8;"/>
   </g>
   <g id="patch_6">
    <path d="M 90 43.2 
L 648 43.2 
" style="fill:none;stroke:#000000;stroke-linecap:square;stroke-linejoin:miter;stroke-width:0.8;"/>
   </g>
   <g id="legend_1">
    <g id="patch_7">
     <path d="M 97 80.55625 
L 252.723437 80.55625 
Q 254.723437 80.55625 254.723437 78.55625 
L 254.723437 50.2 
Q 254.723437 48.2 252.723437 48.2 
L 97 48.2 
Q 95 48.2 95 50.2 
L 95 78.55625 
Q 95 80.55625 97 80.55625 
z
" style="fill:#ffffff;opacity:0.8;stroke:#cccccc;stroke-linejoin:miter;"/>
    </g>
    <g id="patch_8">
     <path d="M 99 59.798437 
L 119 59.798437 
L 119 52.798437 
L 99 52.798437 
z
" style="fill:#ff0000;stroke:#ff0000;stroke-linejoin:miter;"/>
    </g>
    <g id="text_18">
     <!-- Without speed estimator -->
     <g transform="translate(127 59.798437)scale(0.1 -0.1)">
      <defs>
       <path d="M 3.328125 72.90625 
L 13.28125 72.90625 
L 28.609375 11.28125 
L 43.890625 72.90625 
L 54.984375 72.90625 
L 70.3125 11.28125 
L 85.59375 72.90625 
L 95.609375 72.90625 
L 77.296875 0 
L 64.890625 0 
L 49.515625 63.28125 
L 33.984375 0 
L 21.578125 0 
z
" id="DejaVuSans-87"/>
       <path d="M 54.890625 33.015625 
L 54.890625 0 
L 45.90625 0 
L 45.90625 32.71875 
Q 45.90625 40.484375 42.875 44.328125 
Q 39.84375 48.1875 33.796875 48.1875 
Q 26.515625 48.1875 22.3125 43.546875 
Q 18.109375 38.921875 18.109375 30.90625 
L 18.109375 0 
L 9.078125 0 
L 9.078125 75.984375 
L 18.109375 75.984375 
L 18.109375 46.1875 
Q 21.34375 51.125 25.703125 53.5625 
Q 30.078125 56 35.796875 56 
Q 45.21875 56 50.046875 50.171875 
Q 54.890625 44.34375 54.890625 33.015625 
z
" id="DejaVuSans-104"/>
       <path d="M 30.609375 48.390625 
Q 23.390625 48.390625 19.1875 42.75 
Q 14.984375 37.109375 14.984375 27.296875 
Q 14.984375 17.484375 19.15625 11.84375 
Q 23.34375 6.203125 30.609375 6.203125 
Q 37.796875 6.203125 41.984375 11.859375 
Q 46.1875 17.53125 46.1875 27.296875 
Q 46.1875 37.015625 41.984375 42.703125 
Q 37.796875 48.390625 30.609375 48.390625 
z
M 30.609375 56 
Q 42.328125 56 49.015625 48.375 
Q 55.71875 40.765625 55.71875 27.296875 
Q 55.71875 13.875 49.015625 6.21875 
Q 42.328125 -1.421875 30.609375 -1.421875 
Q 18.84375 -1.421875 12.171875 6.21875 
Q 5.515625 13.875 5.515625 27.296875 
Q 5.515625 40.765625 12.171875 48.375 
Q 18.84375 56 30.609375 56 
z
" id="DejaVuSans-111"/>
       <path d="M 8.5 21.578125 
L 8.5 54.6875 
L 17.484375 54.6875 
L 17.484375 21.921875 
Q 17.484375 14.15625 20.5 10.265625 
Q 23.53125 6.390625 29.59375 6.390625 
Q 36.859375 6.390625 41.078125 11.03125 
Q 45.3125 15.671875 45.3125 23.6875 
L 45.3125 54.6875 
L 54.296875 54.6875 
L 54.296875 0 
L 45.3125 0 
L 45.3125 8.40625 
Q 42.046875 3.421875 37.71875 1 
Q 33.40625 -1.421875 27.6875 -1.421875 
Q 18.265625 -1.421875 13.375 4.4375 
Q 8.5 10.296875 8.5 21.578125 
z
M 31.109375 56 
z
" id="DejaVuSans-117"/>
       <path d="M 45.40625 46.390625 
L 45.40625 75.984375 
L 54.390625 75.984375 
L 54.390625 0 
L 45.40625 0 
L 45.40625 8.203125 
Q 42.578125 3.328125 38.25 0.953125 
Q 33.9375 -1.421875 27.875 -1.421875 
Q 17.96875 -1.421875 11.734375 6.484375 
Q 5.515625 14.40625 5.515625 27.296875 
Q 5.515625 40.1875 11.734375 48.09375 
Q 17.96875 56 27.875 56 
Q 33.9375 56 38.25 53.625 
Q 42.578125 51.265625 45.40625 46.390625 
z
M 14.796875 27.296875 
Q 14.796875 17.390625 18.875 11.75 
Q 22.953125 6.109375 30.078125 6.109375 
Q 37.203125 6.109375 41.296875 11.75 
Q 45.40625 17.390625 45.40625 27.296875 
Q 45.40625 37.203125 41.296875 42.84375 
Q 37.203125 48.484375 30.078125 48.484375 
Q 22.953125 48.484375 18.875 42.84375 
Q 14.796875 37.203125 14.796875 27.296875 
z
" id="DejaVuSans-100"/>
       <path d="M 34.28125 27.484375 
Q 23.390625 27.484375 19.1875 25 
Q 14.984375 22.515625 14.984375 16.5 
Q 14.984375 11.71875 18.140625 8.90625 
Q 21.296875 6.109375 26.703125 6.109375 
Q 34.1875 6.109375 38.703125 11.40625 
Q 43.21875 16.703125 43.21875 25.484375 
L 43.21875 27.484375 
z
M 52.203125 31.203125 
L 52.203125 0 
L 43.21875 0 
L 43.21875 8.296875 
Q 40.140625 3.328125 35.546875 0.953125 
Q 30.953125 -1.421875 24.3125 -1.421875 
Q 15.921875 -1.421875 10.953125 3.296875 
Q 6 8.015625 6 15.921875 
Q 6 25.140625 12.171875 29.828125 
Q 18.359375 34.515625 30.609375 34.515625 
L 43.21875 34.515625 
L 43.21875 35.40625 
Q 43.21875 41.609375 39.140625 45 
Q 35.0625 48.390625 27.6875 48.390625 
Q 23 48.390625 18.546875 47.265625 
Q 14.109375 46.140625 10.015625 43.890625 
L 10.015625 52.203125 
Q 14.9375 54.109375 19.578125 55.046875 
Q 24.21875 56 28.609375 56 
Q 40.484375 56 46.34375 49.84375 
Q 52.203125 43.703125 52.203125 31.203125 
z
" id="DejaVuSans-97"/>
       <path d="M 41.109375 46.296875 
Q 39.59375 47.171875 37.8125 47.578125 
Q 36.03125 48 33.890625 48 
Q 26.265625 48 22.1875 43.046875 
Q 18.109375 38.09375 18.109375 28.8125 
L 18.109375 0 
L 9.078125 0 
L 9.078125 54.6875 
L 18.109375 54.6875 
L 18.109375 46.1875 
Q 20.953125 51.171875 25.484375 53.578125 
Q 30.03125 56 36.53125 56 
Q 37.453125 56 38.578125 55.875 
Q 39.703125 55.765625 41.0625 55.515625 
z
" id="DejaVuSans-114"/>
      </defs>
      <use xlink:href="#DejaVuSans-87"/>
      <use x="96.626953" xlink:href="#DejaVuSans-105"/>
      <use x="124.410156" xlink:href="#DejaVuSans-116"/>
      <use x="163.619141" xlink:href="#DejaVuSans-104"/>
      <use x="226.998047" xlink:href="#DejaVuSans-111"/>
      <use x="288.179688" xlink:href="#DejaVuSans-117"/>
      <use x="351.558594" xlink:href="#DejaVuSans-116"/>
      <use x="390.767578" xlink:href="#DejaVuSans-32"/>
      <use x="422.554688" xlink:href="#DejaVuSans-115"/>
      <use x="474.654297" xlink:href="#DejaVuSans-112"/>
      <use x="538.130859" xlink:href="#DejaVuSans-101"/>
      <use x="599.654297" xlink:href="#DejaVuSans-101"/>
      <use x="661.177734" xlink:href="#DejaVuSans-100"/>
      <use x="724.654297" xlink:href="#DejaVuSans-32"/>
      <use x="756.441406" xlink:href="#DejaVuSans-101"/>
      <use x="817.964844" xlink:href="#DejaVuSans-115"/>
      <use x="870.064453" xlink:href="#DejaVuSans-116"/>
      <use x="909.273438" xlink:href="#DejaVuSans-105"/>
      <use x="937.056641" xlink:href="#DejaVuSans-109"/>
      <use x="1034.46875" xlink:href="#DejaVuSans-97"/>
      <use x="1095.748047" xlink:href="#DejaVuSans-116"/>
      <use x="1134.957031" xlink:href="#DejaVuSans-111"/>
      <use x="1196.138672" xlink:href="#DejaVuSans-114"/>
     </g>
    </g>
    <g id="patch_9">
     <path d="M 99 74.476562 
L 119 74.476562 
L 119 67.476562 
L 99 67.476562 
z
" style="fill:#008000;stroke:#008000;stroke-linejoin:miter;"/>
    </g>
    <g id="text_19">
     <!-- With speed estimator -->
     <g transform="translate(127 74.476562)scale(0.1 -0.1)">
      <use xlink:href="#DejaVuSans-87"/>
      <use x="96.626953" xlink:href="#DejaVuSans-105"/>
      <use x="124.410156" xlink:href="#DejaVuSans-116"/>
      <use x="163.619141" xlink:href="#DejaVuSans-104"/>
      <use x="226.998047" xlink:href="#DejaVuSans-32"/>
      <use x="258.785156" xlink:href="#DejaVuSans-115"/>
      <use x="310.884766" xlink:href="#DejaVuSans-112"/>
      <use x="374.361328" xlink:href="#DejaVuSans-101"/>
      <use x="435.884766" xlink:href="#DejaVuSans-101"/>
      <use x="497.408203" xlink:href="#DejaVuSans-100"/>
      <use x="560.884766" xlink:href="#DejaVuSans-32"/>
      <use x="592.671875" xlink:href="#DejaVuSans-101"/>
      <use x="654.195312" xlink:href="#DejaVuSans-115"/>
      <use x="706.294922" xlink:href="#DejaVuSans-116"/>
      <use x="745.503906" xlink:href="#DejaVuSans-105"/>
      <use x="773.287109" xlink:href="#DejaVuSans-109"/>
      <use x="870.699219" xlink:href="#DejaVuSans-97"/>
      <use x="931.978516" xlink:href="#DejaVuSans-116"/>
      <use x="971.1875" xlink:href="#DejaVuSans-111"/>
      <use x="1032.369141" xlink:href="#DejaVuSans-114"/>
     </g>
    </g>
   </g>
  </g>
 </g>
 <defs>
  <clipPath id="p28f6adccad">
   <rect height="277.2" width="558" x="90" y="43.2"/>
  </clipPath>
 </defs>
</svg>
