<?xml version="1.0" encoding="utf-8" standalone="no"?>
<!DOCTYPE svg PUBLIC "-//W3C//DTD SVG 1.1//EN"
  "http://www.w3.org/Graphics/SVG/1.1/DTD/svg11.dtd">
<!-- Created with matplotlib (https://matplotlib.org/) -->
<svg height="360pt" version="1.1" viewBox="0 0 720 360" width="720pt" xmlns="http://www.w3.org/2000/svg" xmlns:xlink="http://www.w3.org/1999/xlink">
 <metadata>
  <rdf:RDF xmlns:cc="http://creativecommons.org/ns#" xmlns:dc="http://purl.org/dc/elements/1.1/" xmlns:rdf="http://www.w3.org/1999/02/22-rdf-syntax-ns#">
   <cc:Work>
    <dc:type rdf:resource="http://purl.org/dc/dcmitype/StillImage"/>
    <dc:date>2021-03-19T16:09:33.205346</dc:date>
    <dc:format>image/svg+xml</dc:format>
    <dc:creator>
     <cc:Agent>
      <dc:title>Matplotlib v3.3.4, https://matplotlib.org/</dc:title>
     </cc:Agent>
    </dc:creator>
   </cc:Work>
  </rdf:RDF>
 </metadata>
 <defs>
  <style type="text/css">*{stroke-linecap:butt;stroke-linejoin:round;}</style>
 </defs>
 <g id="figure_1">
  <g id="patch_1">
   <path d="M 0 360 
L 720 360 
L 720 0 
L 0 0 
z
" style="fill:#ffffff;"/>
  </g>
  <g id="axes_1">
   <g id="patch_2">
    <path d="M 90 320.4 
L 648 320.4 
L 648 43.2 
L 90 43.2 
z
" style="fill:#ffffff;"/>
   </g>
   <g id="matplotlib.axis_1">
    <g id="xtick_1">
     <g id="line2d_1">
      <defs>
       <path d="M 0 0 
L 0 3.5 
" id="m36eb1ee461" style="stroke:#000000;stroke-width:0.8;"/>
      </defs>
      <g>
       <use style="stroke:#000000;stroke-width:0.8;" x="115.363636" xlink:href="#m36eb1ee461" y="320.4"/>
      </g>
     </g>
     <g id="text_1">
      <!-- 0 -->
      <g transform="translate(112.182386 334.998438)scale(0.1 -0.1)">
       <defs>
        <path d="M 31.78125 66.40625 
Q 24.171875 66.40625 20.328125 58.90625 
Q 16.5 51.421875 16.5 36.375 
Q 16.5 21.390625 20.328125 13.890625 
Q 24.171875 6.390625 31.78125 6.390625 
Q 39.453125 6.390625 43.28125 13.890625 
Q 47.125 21.390625 47.125 36.375 
Q 47.125 51.421875 43.28125 58.90625 
Q 39.453125 66.40625 31.78125 66.40625 
z
M 31.78125 74.21875 
Q 44.046875 74.21875 50.515625 64.515625 
Q 56.984375 54.828125 56.984375 36.375 
Q 56.984375 17.96875 50.515625 8.265625 
Q 44.046875 -1.421875 31.78125 -1.421875 
Q 19.53125 -1.421875 13.0625 8.265625 
Q 6.59375 17.96875 6.59375 36.375 
Q 6.59375 54.828125 13.0625 64.515625 
Q 19.53125 74.21875 31.78125 74.21875 
z
" id="DejaVuSans-48"/>
       </defs>
       <use xlink:href="#DejaVuSans-48"/>
      </g>
     </g>
    </g>
    <g id="xtick_2">
     <g id="line2d_2">
      <g>
       <use style="stroke:#000000;stroke-width:0.8;" x="216.818182" xlink:href="#m36eb1ee461" y="320.4"/>
      </g>
     </g>
     <g id="text_2">
      <!-- 2000 -->
      <g transform="translate(204.093182 334.998438)scale(0.1 -0.1)">
       <defs>
        <path d="M 19.1875 8.296875 
L 53.609375 8.296875 
L 53.609375 0 
L 7.328125 0 
L 7.328125 8.296875 
Q 12.9375 14.109375 22.625 23.890625 
Q 32.328125 33.6875 34.8125 36.53125 
Q 39.546875 41.84375 41.421875 45.53125 
Q 43.3125 49.21875 43.3125 52.78125 
Q 43.3125 58.59375 39.234375 62.25 
Q 35.15625 65.921875 28.609375 65.921875 
Q 23.96875 65.921875 18.8125 64.3125 
Q 13.671875 62.703125 7.8125 59.421875 
L 7.8125 69.390625 
Q 13.765625 71.78125 18.9375 73 
Q 24.125 74.21875 28.421875 74.21875 
Q 39.75 74.21875 46.484375 68.546875 
Q 53.21875 62.890625 53.21875 53.421875 
Q 53.21875 48.921875 51.53125 44.890625 
Q 49.859375 40.875 45.40625 35.40625 
Q 44.1875 33.984375 37.640625 27.21875 
Q 31.109375 20.453125 19.1875 8.296875 
z
" id="DejaVuSans-50"/>
       </defs>
       <use xlink:href="#DejaVuSans-50"/>
       <use x="63.623047" xlink:href="#DejaVuSans-48"/>
       <use x="127.246094" xlink:href="#DejaVuSans-48"/>
       <use x="190.869141" xlink:href="#DejaVuSans-48"/>
      </g>
     </g>
    </g>
    <g id="xtick_3">
     <g id="line2d_3">
      <g>
       <use style="stroke:#000000;stroke-width:0.8;" x="318.272727" xlink:href="#m36eb1ee461" y="320.4"/>
      </g>
     </g>
     <g id="text_3">
      <!-- 4000 -->
      <g transform="translate(305.547727 334.998438)scale(0.1 -0.1)">
       <defs>
        <path d="M 37.796875 64.3125 
L 12.890625 25.390625 
L 37.796875 25.390625 
z
M 35.203125 72.90625 
L 47.609375 72.90625 
L 47.609375 25.390625 
L 58.015625 25.390625 
L 58.015625 17.1875 
L 47.609375 17.1875 
L 47.609375 0 
L 37.796875 0 
L 37.796875 17.1875 
L 4.890625 17.1875 
L 4.890625 26.703125 
z
" id="DejaVuSans-52"/>
       </defs>
       <use xlink:href="#DejaVuSans-52"/>
       <use x="63.623047" xlink:href="#DejaVuSans-48"/>
       <use x="127.246094" xlink:href="#DejaVuSans-48"/>
       <use x="190.869141" xlink:href="#DejaVuSans-48"/>
      </g>
     </g>
    </g>
    <g id="xtick_4">
     <g id="line2d_4">
      <g>
       <use style="stroke:#000000;stroke-width:0.8;" x="419.727273" xlink:href="#m36eb1ee461" y="320.4"/>
      </g>
     </g>
     <g id="text_4">
      <!-- 6000 -->
      <g transform="translate(407.002273 334.998438)scale(0.1 -0.1)">
       <defs>
        <path d="M 33.015625 40.375 
Q 26.375 40.375 22.484375 35.828125 
Q 18.609375 31.296875 18.609375 23.390625 
Q 18.609375 15.53125 22.484375 10.953125 
Q 26.375 6.390625 33.015625 6.390625 
Q 39.65625 6.390625 43.53125 10.953125 
Q 47.40625 15.53125 47.40625 23.390625 
Q 47.40625 31.296875 43.53125 35.828125 
Q 39.65625 40.375 33.015625 40.375 
z
M 52.59375 71.296875 
L 52.59375 62.3125 
Q 48.875 64.0625 45.09375 64.984375 
Q 41.3125 65.921875 37.59375 65.921875 
Q 27.828125 65.921875 22.671875 59.328125 
Q 17.53125 52.734375 16.796875 39.40625 
Q 19.671875 43.65625 24.015625 45.921875 
Q 28.375 48.1875 33.59375 48.1875 
Q 44.578125 48.1875 50.953125 41.515625 
Q 57.328125 34.859375 57.328125 23.390625 
Q 57.328125 12.15625 50.6875 5.359375 
Q 44.046875 -1.421875 33.015625 -1.421875 
Q 20.359375 -1.421875 13.671875 8.265625 
Q 6.984375 17.96875 6.984375 36.375 
Q 6.984375 53.65625 15.1875 63.9375 
Q 23.390625 74.21875 37.203125 74.21875 
Q 40.921875 74.21875 44.703125 73.484375 
Q 48.484375 72.75 52.59375 71.296875 
z
" id="DejaVuSans-54"/>
       </defs>
       <use xlink:href="#DejaVuSans-54"/>
       <use x="63.623047" xlink:href="#DejaVuSans-48"/>
       <use x="127.246094" xlink:href="#DejaVuSans-48"/>
       <use x="190.869141" xlink:href="#DejaVuSans-48"/>
      </g>
     </g>
    </g>
    <g id="xtick_5">
     <g id="line2d_5">
      <g>
       <use style="stroke:#000000;stroke-width:0.8;" x="521.181818" xlink:href="#m36eb1ee461" y="320.4"/>
      </g>
     </g>
     <g id="text_5">
      <!-- 8000 -->
      <g transform="translate(508.456818 334.998438)scale(0.1 -0.1)">
       <defs>
        <path d="M 31.78125 34.625 
Q 24.75 34.625 20.71875 30.859375 
Q 16.703125 27.09375 16.703125 20.515625 
Q 16.703125 13.921875 20.71875 10.15625 
Q 24.75 6.390625 31.78125 6.390625 
Q 38.8125 6.390625 42.859375 10.171875 
Q 46.921875 13.96875 46.921875 20.515625 
Q 46.921875 27.09375 42.890625 30.859375 
Q 38.875 34.625 31.78125 34.625 
z
M 21.921875 38.8125 
Q 15.578125 40.375 12.03125 44.71875 
Q 8.5 49.078125 8.5 55.328125 
Q 8.5 64.0625 14.71875 69.140625 
Q 20.953125 74.21875 31.78125 74.21875 
Q 42.671875 74.21875 48.875 69.140625 
Q 55.078125 64.0625 55.078125 55.328125 
Q 55.078125 49.078125 51.53125 44.71875 
Q 48 40.375 41.703125 38.8125 
Q 48.828125 37.15625 52.796875 32.3125 
Q 56.78125 27.484375 56.78125 20.515625 
Q 56.78125 9.90625 50.3125 4.234375 
Q 43.84375 -1.421875 31.78125 -1.421875 
Q 19.734375 -1.421875 13.25 4.234375 
Q 6.78125 9.90625 6.78125 20.515625 
Q 6.78125 27.484375 10.78125 32.3125 
Q 14.796875 37.15625 21.921875 38.8125 
z
M 18.3125 54.390625 
Q 18.3125 48.734375 21.84375 45.5625 
Q 25.390625 42.390625 31.78125 42.390625 
Q 38.140625 42.390625 41.71875 45.5625 
Q 45.3125 48.734375 45.3125 54.390625 
Q 45.3125 60.0625 41.71875 63.234375 
Q 38.140625 66.40625 31.78125 66.40625 
Q 25.390625 66.40625 21.84375 63.234375 
Q 18.3125 60.0625 18.3125 54.390625 
z
" id="DejaVuSans-56"/>
       </defs>
       <use xlink:href="#DejaVuSans-56"/>
       <use x="63.623047" xlink:href="#DejaVuSans-48"/>
       <use x="127.246094" xlink:href="#DejaVuSans-48"/>
       <use x="190.869141" xlink:href="#DejaVuSans-48"/>
      </g>
     </g>
    </g>
    <g id="xtick_6">
     <g id="line2d_6">
      <g>
       <use style="stroke:#000000;stroke-width:0.8;" x="622.636364" xlink:href="#m36eb1ee461" y="320.4"/>
      </g>
     </g>
     <g id="text_6">
      <!-- 10000 -->
      <g transform="translate(606.730114 334.998438)scale(0.1 -0.1)">
       <defs>
        <path d="M 12.40625 8.296875 
L 28.515625 8.296875 
L 28.515625 63.921875 
L 10.984375 60.40625 
L 10.984375 69.390625 
L 28.421875 72.90625 
L 38.28125 72.90625 
L 38.28125 8.296875 
L 54.390625 8.296875 
L 54.390625 0 
L 12.40625 0 
z
" id="DejaVuSans-49"/>
       </defs>
       <use xlink:href="#DejaVuSans-49"/>
       <use x="63.623047" xlink:href="#DejaVuSans-48"/>
       <use x="127.246094" xlink:href="#DejaVuSans-48"/>
       <use x="190.869141" xlink:href="#DejaVuSans-48"/>
       <use x="254.492188" xlink:href="#DejaVuSans-48"/>
      </g>
     </g>
    </g>
    <g id="text_7">
     <!-- Time (steps) -->
     <g transform="translate(337.855469 348.676562)scale(0.1 -0.1)">
      <defs>
       <path d="M -0.296875 72.90625 
L 61.375 72.90625 
L 61.375 64.59375 
L 35.5 64.59375 
L 35.5 0 
L 25.59375 0 
L 25.59375 64.59375 
L -0.296875 64.59375 
z
" id="DejaVuSans-84"/>
       <path d="M 9.421875 54.6875 
L 18.40625 54.6875 
L 18.40625 0 
L 9.421875 0 
z
M 9.421875 75.984375 
L 18.40625 75.984375 
L 18.40625 64.59375 
L 9.421875 64.59375 
z
" id="DejaVuSans-105"/>
       <path d="M 52 44.1875 
Q 55.375 50.25 60.0625 53.125 
Q 64.75 56 71.09375 56 
Q 79.640625 56 84.28125 50.015625 
Q 88.921875 44.046875 88.921875 33.015625 
L 88.921875 0 
L 79.890625 0 
L 79.890625 32.71875 
Q 79.890625 40.578125 77.09375 44.375 
Q 74.3125 48.1875 68.609375 48.1875 
Q 61.625 48.1875 57.5625 43.546875 
Q 53.515625 38.921875 53.515625 30.90625 
L 53.515625 0 
L 44.484375 0 
L 44.484375 32.71875 
Q 44.484375 40.625 41.703125 44.40625 
Q 38.921875 48.1875 33.109375 48.1875 
Q 26.21875 48.1875 22.15625 43.53125 
Q 18.109375 38.875 18.109375 30.90625 
L 18.109375 0 
L 9.078125 0 
L 9.078125 54.6875 
L 18.109375 54.6875 
L 18.109375 46.1875 
Q 21.1875 51.21875 25.484375 53.609375 
Q 29.78125 56 35.6875 56 
Q 41.65625 56 45.828125 52.96875 
Q 50 49.953125 52 44.1875 
z
" id="DejaVuSans-109"/>
       <path d="M 56.203125 29.59375 
L 56.203125 25.203125 
L 14.890625 25.203125 
Q 15.484375 15.921875 20.484375 11.0625 
Q 25.484375 6.203125 34.421875 6.203125 
Q 39.59375 6.203125 44.453125 7.46875 
Q 49.3125 8.734375 54.109375 11.28125 
L 54.109375 2.78125 
Q 49.265625 0.734375 44.1875 -0.34375 
Q 39.109375 -1.421875 33.890625 -1.421875 
Q 20.796875 -1.421875 13.15625 6.1875 
Q 5.515625 13.8125 5.515625 26.8125 
Q 5.515625 40.234375 12.765625 48.109375 
Q 20.015625 56 32.328125 56 
Q 43.359375 56 49.78125 48.890625 
Q 56.203125 41.796875 56.203125 29.59375 
z
M 47.21875 32.234375 
Q 47.125 39.59375 43.09375 43.984375 
Q 39.0625 48.390625 32.421875 48.390625 
Q 24.90625 48.390625 20.390625 44.140625 
Q 15.875 39.890625 15.1875 32.171875 
z
" id="DejaVuSans-101"/>
       <path id="DejaVuSans-32"/>
       <path d="M 31 75.875 
Q 24.46875 64.65625 21.28125 53.65625 
Q 18.109375 42.671875 18.109375 31.390625 
Q 18.109375 20.125 21.3125 9.0625 
Q 24.515625 -2 31 -13.1875 
L 23.1875 -13.1875 
Q 15.875 -1.703125 12.234375 9.375 
Q 8.59375 20.453125 8.59375 31.390625 
Q 8.59375 42.28125 12.203125 53.3125 
Q 15.828125 64.359375 23.1875 75.875 
z
" id="DejaVuSans-40"/>
       <path d="M 44.28125 53.078125 
L 44.28125 44.578125 
Q 40.484375 46.53125 36.375 47.5 
Q 32.28125 48.484375 27.875 48.484375 
Q 21.1875 48.484375 17.84375 46.4375 
Q 14.5 44.390625 14.5 40.28125 
Q 14.5 37.15625 16.890625 35.375 
Q 19.28125 33.59375 26.515625 31.984375 
L 29.59375 31.296875 
Q 39.15625 29.25 43.1875 25.515625 
Q 47.21875 21.78125 47.21875 15.09375 
Q 47.21875 7.46875 41.1875 3.015625 
Q 35.15625 -1.421875 24.609375 -1.421875 
Q 20.21875 -1.421875 15.453125 -0.5625 
Q 10.6875 0.296875 5.421875 2 
L 5.421875 11.28125 
Q 10.40625 8.6875 15.234375 7.390625 
Q 20.0625 6.109375 24.8125 6.109375 
Q 31.15625 6.109375 34.5625 8.28125 
Q 37.984375 10.453125 37.984375 14.40625 
Q 37.984375 18.0625 35.515625 20.015625 
Q 33.0625 21.96875 24.703125 23.78125 
L 21.578125 24.515625 
Q 13.234375 26.265625 9.515625 29.90625 
Q 5.8125 33.546875 5.8125 39.890625 
Q 5.8125 47.609375 11.28125 51.796875 
Q 16.75 56 26.8125 56 
Q 31.78125 56 36.171875 55.265625 
Q 40.578125 54.546875 44.28125 53.078125 
z
" id="DejaVuSans-115"/>
       <path d="M 18.3125 70.21875 
L 18.3125 54.6875 
L 36.8125 54.6875 
L 36.8125 47.703125 
L 18.3125 47.703125 
L 18.3125 18.015625 
Q 18.3125 11.328125 20.140625 9.421875 
Q 21.96875 7.515625 27.59375 7.515625 
L 36.8125 7.515625 
L 36.8125 0 
L 27.59375 0 
Q 17.1875 0 13.234375 3.875 
Q 9.28125 7.765625 9.28125 18.015625 
L 9.28125 47.703125 
L 2.6875 47.703125 
L 2.6875 54.6875 
L 9.28125 54.6875 
L 9.28125 70.21875 
z
" id="DejaVuSans-116"/>
       <path d="M 18.109375 8.203125 
L 18.109375 -20.796875 
L 9.078125 -20.796875 
L 9.078125 54.6875 
L 18.109375 54.6875 
L 18.109375 46.390625 
Q 20.953125 51.265625 25.265625 53.625 
Q 29.59375 56 35.59375 56 
Q 45.5625 56 51.78125 48.09375 
Q 58.015625 40.1875 58.015625 27.296875 
Q 58.015625 14.40625 51.78125 6.484375 
Q 45.5625 -1.421875 35.59375 -1.421875 
Q 29.59375 -1.421875 25.265625 0.953125 
Q 20.953125 3.328125 18.109375 8.203125 
z
M 48.6875 27.296875 
Q 48.6875 37.203125 44.609375 42.84375 
Q 40.53125 48.484375 33.40625 48.484375 
Q 26.265625 48.484375 22.1875 42.84375 
Q 18.109375 37.203125 18.109375 27.296875 
Q 18.109375 17.390625 22.1875 11.75 
Q 26.265625 6.109375 33.40625 6.109375 
Q 40.53125 6.109375 44.609375 11.75 
Q 48.6875 17.390625 48.6875 27.296875 
z
" id="DejaVuSans-112"/>
       <path d="M 8.015625 75.875 
L 15.828125 75.875 
Q 23.140625 64.359375 26.78125 53.3125 
Q 30.421875 42.28125 30.421875 31.390625 
Q 30.421875 20.453125 26.78125 9.375 
Q 23.140625 -1.703125 15.828125 -13.1875 
L 8.015625 -13.1875 
Q 14.5 -2 17.703125 9.0625 
Q 20.90625 20.125 20.90625 31.390625 
Q 20.90625 42.671875 17.703125 53.65625 
Q 14.5 64.65625 8.015625 75.875 
z
" id="DejaVuSans-41"/>
      </defs>
      <use xlink:href="#DejaVuSans-84"/>
      <use x="57.958984" xlink:href="#DejaVuSans-105"/>
      <use x="85.742188" xlink:href="#DejaVuSans-109"/>
      <use x="183.154297" xlink:href="#DejaVuSans-101"/>
      <use x="244.677734" xlink:href="#DejaVuSans-32"/>
      <use x="276.464844" xlink:href="#DejaVuSans-40"/>
      <use x="315.478516" xlink:href="#DejaVuSans-115"/>
      <use x="367.578125" xlink:href="#DejaVuSans-116"/>
      <use x="406.787109" xlink:href="#DejaVuSans-101"/>
      <use x="468.310547" xlink:href="#DejaVuSans-112"/>
      <use x="531.787109" xlink:href="#DejaVuSans-115"/>
      <use x="583.886719" xlink:href="#DejaVuSans-41"/>
     </g>
    </g>
   </g>
   <g id="matplotlib.axis_2">
    <g id="ytick_1">
     <g id="line2d_7">
      <defs>
       <path d="M 0 0 
L -3.5 0 
" id="m42548e5a69" style="stroke:#000000;stroke-width:0.8;"/>
      </defs>
      <g>
       <use style="stroke:#000000;stroke-width:0.8;" x="90" xlink:href="#m42548e5a69" y="307.8"/>
      </g>
     </g>
     <g id="text_8">
      <!-- 0 -->
      <g transform="translate(76.6375 311.599219)scale(0.1 -0.1)">
       <use xlink:href="#DejaVuSans-48"/>
      </g>
     </g>
    </g>
    <g id="ytick_2">
     <g id="line2d_8">
      <g>
       <use style="stroke:#000000;stroke-width:0.8;" x="90" xlink:href="#m42548e5a69" y="250.75924"/>
      </g>
     </g>
     <g id="text_9">
      <!-- 5 -->
      <g transform="translate(76.6375 254.558459)scale(0.1 -0.1)">
       <defs>
        <path d="M 10.796875 72.90625 
L 49.515625 72.90625 
L 49.515625 64.59375 
L 19.828125 64.59375 
L 19.828125 46.734375 
Q 21.96875 47.46875 24.109375 47.828125 
Q 26.265625 48.1875 28.421875 48.1875 
Q 40.625 48.1875 47.75 41.5 
Q 54.890625 34.8125 54.890625 23.390625 
Q 54.890625 11.625 47.5625 5.09375 
Q 40.234375 -1.421875 26.90625 -1.421875 
Q 22.3125 -1.421875 17.546875 -0.640625 
Q 12.796875 0.140625 7.71875 1.703125 
L 7.71875 11.625 
Q 12.109375 9.234375 16.796875 8.0625 
Q 21.484375 6.890625 26.703125 6.890625 
Q 35.15625 6.890625 40.078125 11.328125 
Q 45.015625 15.765625 45.015625 23.390625 
Q 45.015625 31 40.078125 35.4375 
Q 35.15625 39.890625 26.703125 39.890625 
Q 22.75 39.890625 18.8125 39.015625 
Q 14.890625 38.140625 10.796875 36.28125 
z
" id="DejaVuSans-53"/>
       </defs>
       <use xlink:href="#DejaVuSans-53"/>
      </g>
     </g>
    </g>
    <g id="ytick_3">
     <g id="line2d_9">
      <g>
       <use style="stroke:#000000;stroke-width:0.8;" x="90" xlink:href="#m42548e5a69" y="193.71848"/>
      </g>
     </g>
     <g id="text_10">
      <!-- 10 -->
      <g transform="translate(70.275 197.517699)scale(0.1 -0.1)">
       <use xlink:href="#DejaVuSans-49"/>
       <use x="63.623047" xlink:href="#DejaVuSans-48"/>
      </g>
     </g>
    </g>
    <g id="ytick_4">
     <g id="line2d_10">
      <g>
       <use style="stroke:#000000;stroke-width:0.8;" x="90" xlink:href="#m42548e5a69" y="136.67772"/>
      </g>
     </g>
     <g id="text_11">
      <!-- 15 -->
      <g transform="translate(70.275 140.476938)scale(0.1 -0.1)">
       <use xlink:href="#DejaVuSans-49"/>
       <use x="63.623047" xlink:href="#DejaVuSans-53"/>
      </g>
     </g>
    </g>
    <g id="ytick_5">
     <g id="line2d_11">
      <g>
       <use style="stroke:#000000;stroke-width:0.8;" x="90" xlink:href="#m42548e5a69" y="79.63696"/>
      </g>
     </g>
     <g id="text_12">
      <!-- 20 -->
      <g transform="translate(70.275 83.436178)scale(0.1 -0.1)">
       <use xlink:href="#DejaVuSans-50"/>
       <use x="63.623047" xlink:href="#DejaVuSans-48"/>
      </g>
     </g>
    </g>
    <g id="text_13">
     <!-- RMSE(m) -->
     <g transform="translate(64.195312 204.69375)rotate(-90)scale(0.1 -0.1)">
      <defs>
       <path d="M 44.390625 34.1875 
Q 47.5625 33.109375 50.5625 29.59375 
Q 53.5625 26.078125 56.59375 19.921875 
L 66.609375 0 
L 56 0 
L 46.6875 18.703125 
Q 43.0625 26.03125 39.671875 28.421875 
Q 36.28125 30.8125 30.421875 30.8125 
L 19.671875 30.8125 
L 19.671875 0 
L 9.8125 0 
L 9.8125 72.90625 
L 32.078125 72.90625 
Q 44.578125 72.90625 50.734375 67.671875 
Q 56.890625 62.453125 56.890625 51.90625 
Q 56.890625 45.015625 53.6875 40.46875 
Q 50.484375 35.9375 44.390625 34.1875 
z
M 19.671875 64.796875 
L 19.671875 38.921875 
L 32.078125 38.921875 
Q 39.203125 38.921875 42.84375 42.21875 
Q 46.484375 45.515625 46.484375 51.90625 
Q 46.484375 58.296875 42.84375 61.546875 
Q 39.203125 64.796875 32.078125 64.796875 
z
" id="DejaVuSans-82"/>
       <path d="M 9.8125 72.90625 
L 24.515625 72.90625 
L 43.109375 23.296875 
L 61.8125 72.90625 
L 76.515625 72.90625 
L 76.515625 0 
L 66.890625 0 
L 66.890625 64.015625 
L 48.09375 14.015625 
L 38.1875 14.015625 
L 19.390625 64.015625 
L 19.390625 0 
L 9.8125 0 
z
" id="DejaVuSans-77"/>
       <path d="M 53.515625 70.515625 
L 53.515625 60.890625 
Q 47.90625 63.578125 42.921875 64.890625 
Q 37.9375 66.21875 33.296875 66.21875 
Q 25.25 66.21875 20.875 63.09375 
Q 16.5 59.96875 16.5 54.203125 
Q 16.5 49.359375 19.40625 46.890625 
Q 22.3125 44.4375 30.421875 42.921875 
L 36.375 41.703125 
Q 47.40625 39.59375 52.65625 34.296875 
Q 57.90625 29 57.90625 20.125 
Q 57.90625 9.515625 50.796875 4.046875 
Q 43.703125 -1.421875 29.984375 -1.421875 
Q 24.8125 -1.421875 18.96875 -0.25 
Q 13.140625 0.921875 6.890625 3.21875 
L 6.890625 13.375 
Q 12.890625 10.015625 18.65625 8.296875 
Q 24.421875 6.59375 29.984375 6.59375 
Q 38.421875 6.59375 43.015625 9.90625 
Q 47.609375 13.234375 47.609375 19.390625 
Q 47.609375 24.75 44.3125 27.78125 
Q 41.015625 30.8125 33.5 32.328125 
L 27.484375 33.5 
Q 16.453125 35.6875 11.515625 40.375 
Q 6.59375 45.0625 6.59375 53.421875 
Q 6.59375 63.09375 13.40625 68.65625 
Q 20.21875 74.21875 32.171875 74.21875 
Q 37.3125 74.21875 42.625 73.28125 
Q 47.953125 72.359375 53.515625 70.515625 
z
" id="DejaVuSans-83"/>
       <path d="M 9.8125 72.90625 
L 55.90625 72.90625 
L 55.90625 64.59375 
L 19.671875 64.59375 
L 19.671875 43.015625 
L 54.390625 43.015625 
L 54.390625 34.71875 
L 19.671875 34.71875 
L 19.671875 8.296875 
L 56.78125 8.296875 
L 56.78125 0 
L 9.8125 0 
z
" id="DejaVuSans-69"/>
      </defs>
      <use xlink:href="#DejaVuSans-82"/>
      <use x="69.482422" xlink:href="#DejaVuSans-77"/>
      <use x="155.761719" xlink:href="#DejaVuSans-83"/>
      <use x="219.238281" xlink:href="#DejaVuSans-69"/>
      <use x="282.421875" xlink:href="#DejaVuSans-40"/>
      <use x="321.435547" xlink:href="#DejaVuSans-109"/>
      <use x="418.847656" xlink:href="#DejaVuSans-41"/>
     </g>
    </g>
   </g>
   <g id="line2d_12">
    <path clip-path="url(#p14a0a74996)" d="M 115.363636 307.8 
L 131.089091 307.796525 
L 134.944364 307.781093 
L 135.400909 307.772333 
L 135.603818 307.779826 
L 136.618364 307.751903 
L 136.821273 307.780259 
L 137.125636 307.742841 
L 137.683636 307.797935 
L 140.270727 307.740028 
L 140.625818 307.784945 
L 143.111455 307.781031 
L 143.415818 307.797681 
L 143.821636 307.786908 
L 144.582545 307.798825 
L 146.611636 307.789266 
L 147.474 307.78078 
L 147.727636 307.79765 
L 153.814909 307.769561 
L 154.068545 307.797954 
L 166.598182 307.784163 
L 166.851818 307.77971 
L 168.069273 307.796599 
L 168.373636 307.758689 
L 168.678 307.793986 
L 168.880909 307.77428 
L 169.388182 307.785162 
L 170.757818 307.783264 
L 171.062182 307.779935 
L 171.721636 307.793794 
L 172.786909 307.757926 
L 173.091273 307.792533 
L 174.866727 307.77795 
L 176.134909 307.785461 
L 176.743636 307.745278 
L 176.895818 307.781955 
L 177.048 307.765023 
L 177.352364 307.792618 
L 178.417636 307.779884 
L 179.026364 307.786944 
L 180.294545 307.763485 
L 180.598909 307.780164 
L 182.120727 307.773871 
L 182.881636 307.78933 
L 183.388909 307.762844 
L 183.845455 307.794368 
L 186.178909 307.753632 
L 189.273273 307.757922 
L 192.114 307.717105 
L 192.215455 307.570256 
L 192.266182 307.776975 
L 192.316909 307.71849 
L 192.976364 307.730105 
L 193.077818 307.352809 
L 193.23 307.640429 
L 193.382182 307.773459 
L 193.686545 306.32087 
L 193.737273 306.053274 
L 193.838727 307.351506 
L 193.889455 307.136818 
L 195.462 307.127587 
L 196.476545 307.124984 
L 202.817455 307.045942 
L 203.020364 307.044879 
L 203.426182 307.053928 
L 208.093091 306.959922 
L 208.346727 306.615904 
L 208.752545 305.529828 
L 209.158364 303.999115 
L 209.209091 303.610946 
L 209.259818 304.274503 
L 209.310545 300.359933 
L 209.361273 307.31171 
L 209.412 299.557539 
L 209.462727 303.020483 
L 209.513455 302.25038 
L 210.578727 297.420302 
L 212.404909 289.435919 
L 214.636909 279.352394 
L 217.021091 268.097052 
L 217.934182 263.925902 
L 218.492182 262.018857 
L 218.542909 262.077484 
L 218.695091 262.254622 
L 218.745818 262.008435 
L 218.796545 262.276851 
L 219.100909 263.399969 
L 219.303818 264.49071 
L 219.608182 265.036143 
L 219.760364 265.166118 
L 219.861818 265.168338 
L 219.912545 265.33096 
L 219.963273 265.245498 
L 220.064727 265.179132 
L 220.216909 265.415549 
L 220.267636 265.375829 
L 220.521273 265.79296 
L 220.724182 266.058833 
L 221.180727 266.645428 
L 221.992364 267.697801 
L 222.448909 268.646692 
L 223.564909 271.228802 
L 224.376545 273.144718 
L 225.695455 275.899978 
L 225.949091 276.553347 
L 226.253455 277.121892 
L 226.963636 278.683818 
L 227.420182 279.562804 
L 228.485455 281.68679 
L 228.891273 282.269006 
L 229.297091 283.076951 
L 229.702909 283.605705 
L 230.311636 284.644793 
L 232.036364 286.927282 
L 232.645091 287.500478 
L 234.319091 289.08142 
L 234.572727 289.222489 
L 235.333636 289.781101 
L 235.739455 290.08163 
L 236.652545 290.577591 
L 236.956909 290.71674 
L 237.971455 291.271422 
L 238.833818 291.644943 
L 239.239636 291.884066 
L 239.493273 291.920821 
L 239.696182 291.972796 
L 239.949818 292.100934 
L 243.247091 293.04622 
L 243.754364 293.161352 
L 244.109455 293.276738 
L 244.312364 293.298179 
L 246.899455 293.728163 
L 247.863273 293.877982 
L 250.196727 294.101326 
L 250.704 294.148291 
L 251.667818 294.148651 
L 252.479455 294.189163 
L 252.986727 294.22789 
L 253.392545 294.252595 
L 254.508545 294.292515 
L 254.914364 294.308166 
L 257.298545 294.41379 
L 257.552182 294.40601 
L 257.907273 294.457585 
L 258.617455 294.449151 
L 259.327636 294.453381 
L 264.755455 294.584399 
L 265.313455 294.596872 
L 271.908 294.717843 
L 272.871818 294.774687 
L 276.980727 294.79155 
L 277.944545 294.798939 
L 278.604 294.818809 
L 279.314182 294.809258 
L 280.633091 294.846261 
L 282.357818 294.889788 
L 283.981091 294.871969 
L 285.401455 294.843119 
L 286.923273 294.403404 
L 287.937818 293.392136 
L 288.343636 292.970296 
L 288.749455 292.644886 
L 288.901636 292.513788 
L 289.459636 291.986578 
L 291.640909 290.305051 
L 291.843818 290.188233 
L 292.351091 289.896689 
L 292.604727 289.80069 
L 293.112 289.473641 
L 293.365636 289.419602 
L 293.619273 289.27587 
L 294.126545 289.089011 
L 295.597636 288.76593 
L 295.749818 288.70431 
L 295.952727 288.655043 
L 296.409273 288.559041 
L 296.561455 288.55262 
L 296.815091 288.514822 
L 297.373091 288.505074 
L 297.778909 288.487007 
L 297.931091 288.475494 
L 298.235455 288.500799 
L 298.489091 288.473379 
L 298.692 288.546866 
L 298.996364 288.516333 
L 300.416727 288.662571 
L 300.771818 288.617657 
L 301.482 288.918482 
L 301.583455 288.883896 
L 301.837091 288.939657 
L 304.119818 289.492446 
L 304.373455 289.564664 
L 304.880727 289.665849 
L 305.032909 289.725084 
L 306.199636 290.108784 
L 306.859091 290.292876 
L 307.112727 290.287446 
L 307.417091 290.46868 
L 308.025818 290.54775 
L 308.431636 290.74232 
L 308.583818 290.783443 
L 308.888182 290.876745 
L 309.141818 291.016316 
L 309.344727 291.056882 
L 310.054909 291.259929 
L 310.359273 291.387575 
L 310.511455 291.431249 
L 311.272364 291.6087 
L 311.526 291.738571 
L 311.728909 291.728012 
L 312.489818 292.026009 
L 313.047818 292.162629 
L 313.352182 292.200576 
L 313.707273 292.289013 
L 313.859455 292.299382 
L 316.903091 293.001412 
L 317.055273 292.996295 
L 317.308909 293.035938 
L 317.714727 293.131084 
L 318.424909 293.244374 
L 318.982909 293.395755 
L 319.287273 293.419051 
L 319.591636 293.49822 
L 319.743818 293.449701 
L 319.896 293.498752 
L 320.200364 293.546398 
L 320.656909 293.646049 
L 321.417818 293.804477 
L 321.671455 293.873259 
L 321.823636 293.87685 
L 322.330909 293.90444 
L 323.294727 294.035369 
L 323.599091 294.169341 
L 324.157091 294.22576 
L 324.613636 294.329395 
L 325.120909 294.413225 
L 326.084727 294.542851 
L 326.389091 294.646114 
L 326.592 294.673941 
L 326.896364 294.700325 
L 327.048545 294.691389 
L 329.94 295.016821 
L 330.142909 295.074645 
L 330.447273 295.087538 
L 330.853091 295.148305 
L 331.969091 295.215713 
L 332.273455 295.226203 
L 333.034364 295.250224 
L 333.592364 295.304182 
L 333.947455 295.365133 
L 334.962 295.403141 
L 336.585273 295.697477 
L 337.041818 296.415894 
L 337.498364 298.057238 
L 338.005636 301.46346 
L 338.665091 307.079641 
L 338.766545 306.78375 
L 339.375273 301.102306 
L 340.744909 288.836027 
L 342.013091 278.795091 
L 343.839273 265.944422 
L 345.716182 254.210144 
L 347.897455 241.968053 
L 350.129455 230.566045 
L 352.970182 217.273304 
L 356.571818 201.715762 
L 362.456182 177.902863 
L 369.558 149.188659 
L 371.079818 142.793901 
L 373.159636 134.057528 
L 374.782909 127.156399 
L 375.290182 124.917863 
L 375.797455 122.802523 
L 381.884727 97.059756 
L 382.087636 96.288709 
L 382.95 92.688524 
L 383.254364 91.43351 
L 383.609455 89.99856 
L 383.761636 89.52438 
L 384.522545 86.461734 
L 385.435636 83.017599 
L 388.073455 73.463489 
L 388.124182 73.428745 
L 388.631455 71.888988 
L 389.341636 69.639956 
L 389.595273 69.056662 
L 389.798182 68.925712 
L 390.153273 68.87507 
L 390.356182 68.97321 
L 390.812727 68.998104 
L 391.421455 68.327689 
L 391.776545 67.497076 
L 392.131636 66.692355 
L 393.602727 63.759565 
L 396.342 59.70522 
L 397.102909 58.831498 
L 399.284182 57.02991 
L 400.095818 56.554785 
L 402.936545 55.808809 
L 404.762727 56.043852 
L 404.965636 56.117117 
L 405.168545 56.169332 
L 405.574364 56.342991 
L 405.878727 56.455678 
L 406.436727 56.764375 
L 406.538182 56.840053 
L 406.944 57.070264 
L 407.755636 57.619382 
L 409.023818 58.671235 
L 409.429636 59.11249 
L 409.734 59.408869 
L 410.292 60.035764 
L 410.342727 60.051564 
L 410.545636 60.367315 
L 410.697818 60.497959 
L 411.052909 60.956354 
L 411.560182 61.629178 
L 412.168909 62.442845 
L 412.371818 62.784952 
L 413.690727 64.947733 
L 413.842909 65.193934 
L 416.683636 70.706232 
L 416.886545 71.242424 
L 417.546 72.715598 
L 417.901091 73.47625 
L 419.372182 77.067115 
L 419.524364 77.620233 
L 419.575091 77.599165 
L 419.879455 78.403766 
L 420.336 79.63066 
L 420.640364 80.475966 
L 420.995455 81.540725 
L 421.046182 81.557116 
L 421.553455 83.033244 
L 422.821636 86.703977 
L 422.973818 87.317407 
L 423.024545 87.30989 
L 425.256545 94.631087 
L 425.307273 94.608985 
L 425.560909 95.7175 
L 425.611636 95.571132 
L 425.763818 96.560771 
L 425.814545 96.237842 
L 425.865273 96.627575 
L 426.169636 97.539122 
L 426.423273 98.739712 
L 426.474 98.510153 
L 426.626182 99.639507 
L 426.676909 99.013364 
L 426.829091 99.951573 
L 426.879818 100.015365 
L 427.184182 101.166539 
L 427.234909 101.24208 
L 427.387091 102.200238 
L 427.437818 101.815855 
L 427.59 102.668366 
L 427.640727 102.688726 
L 427.792909 103.68484 
L 427.843636 103.169314 
L 427.995818 104.434724 
L 428.046545 103.964036 
L 428.198727 104.878615 
L 428.300182 105.119983 
L 428.553818 106.38234 
L 428.604545 106.038918 
L 428.807455 106.965448 
L 429.365455 109.383931 
L 429.416182 108.999831 
L 429.568364 110.287413 
L 429.619091 109.804677 
L 429.771273 111.134021 
L 429.822 110.513701 
L 429.974182 112.138861 
L 430.024909 110.752769 
L 430.075636 113.131235 
L 430.126364 110.831863 
L 430.278545 113.214385 
L 430.329273 111.989834 
L 430.38 113.191653 
L 430.430727 112.791042 
L 430.582909 114.055867 
L 430.633636 113.545973 
L 430.785818 114.609237 
L 430.836545 114.439256 
L 431.039455 115.371462 
L 431.343818 116.840238 
L 431.394545 116.55034 
L 431.546727 117.662016 
L 431.597455 117.371961 
L 431.749636 118.656776 
L 431.800364 118.096669 
L 431.952545 119.629456 
L 432.003273 118.773575 
L 432.054 119.712177 
L 432.104727 119.351307 
L 432.256909 120.622538 
L 432.307636 120.177091 
L 432.459818 121.276558 
L 432.510545 121.044645 
L 432.662727 121.927853 
L 432.713455 121.951852 
L 432.967091 123.06222 
L 433.068545 123.331216 
L 433.220727 124.197637 
L 433.271455 124.080714 
L 433.423636 125.039109 
L 433.474364 124.869668 
L 433.626545 126.05852 
L 433.677273 125.59886 
L 433.829455 126.952332 
L 433.880182 126.475106 
L 434.032364 127.987252 
L 434.083091 127.058165 
L 434.133818 128.09261 
L 434.184545 127.821428 
L 434.286 127.786016 
L 434.336727 129.07825 
L 434.387455 128.272639 
L 434.438182 129.223595 
L 434.488909 128.887228 
L 434.641091 129.905259 
L 434.691818 129.89341 
L 435.96 135.591496 
L 436.010727 135.336594 
L 436.162909 136.910102 
L 436.213636 135.846332 
L 436.264364 137.783376 
L 436.365818 137.746597 
L 436.416545 137.211559 
L 436.467273 137.789665 
L 436.518 137.71683 
L 436.720909 138.76932 
L 436.771636 138.824025 
L 437.076 140.552533 
L 437.126727 140.275612 
L 437.278909 141.23192 
L 437.329636 141.204587 
L 437.481818 142.141059 
L 437.532545 142.052696 
L 437.684727 143.08796 
L 437.735455 142.857708 
L 437.887636 144.131683 
L 437.938364 143.627154 
L 438.090545 145.025873 
L 438.141273 144.672318 
L 438.293455 146.163872 
L 438.344182 145.154745 
L 438.394909 146.249749 
L 438.445636 146.019003 
L 438.597818 147.124095 
L 438.648545 146.79194 
L 438.902182 148.414774 
L 438.952909 148.213225 
L 439.105091 149.103992 
L 439.155818 149.132287 
L 439.308 150.02859 
L 439.358727 150.057573 
L 439.612364 151.164313 
L 439.967455 152.843218 
L 440.119636 153.371541 
L 440.271818 154.536228 
L 440.322545 154.073953 
L 440.474727 155.580638 
L 440.525455 154.771251 
L 440.576182 155.679979 
L 440.626909 155.502759 
L 440.779091 156.613136 
L 440.829818 156.396159 
L 440.982 157.694684 
L 441.032727 157.172233 
L 441.184909 158.245346 
L 441.337091 158.774648 
L 441.54 159.77702 
L 443.366182 168.517306 
L 443.416909 167.805817 
L 443.467636 168.309253 
L 443.619818 169.412739 
L 443.670545 169.082136 
L 443.822727 170.187479 
L 443.873455 170.169887 
L 444.025636 171.335454 
L 444.076364 170.962839 
L 444.228545 172.108 
L 444.279273 172.163211 
L 444.532909 173.549844 
L 444.583636 173.562634 
L 444.888 175.401316 
L 444.938727 174.960815 
L 445.090909 176.57718 
L 445.141636 175.889411 
L 445.293818 177.240246 
L 445.344545 176.952403 
L 445.547455 178.083777 
L 446.054727 180.571447 
L 446.105455 180.633713 
L 446.359091 181.990917 
L 446.409818 182.096551 
L 446.714182 183.682422 
L 446.764909 183.733111 
L 447.170727 185.942261 
L 447.221455 185.881056 
L 447.475091 187.208643 
L 447.525818 187.27347 
L 447.576545 188.011393 
L 447.678 187.957256 
L 447.830182 189.202251 
L 447.880909 188.781234 
L 448.033091 190.131952 
L 448.083818 189.858667 
L 448.236 191.187839 
L 448.286727 190.822478 
L 448.438909 192.242103 
L 448.489636 191.860168 
L 448.692545 193.002192 
L 449.098364 195.09203 
L 450.417273 201.287523 
L 450.670909 202.749132 
L 450.721636 202.765497 
L 450.924545 203.974221 
L 450.975273 204.02629 
L 451.178182 205.251831 
L 451.228909 205.202051 
L 451.381091 206.479127 
L 451.431818 206.243582 
L 451.634727 207.310543 
L 452.142 209.827411 
L 454.678364 222.089074 
L 454.830545 223.399814 
L 454.881273 222.976198 
L 455.033455 224.079708 
L 455.185636 224.645464 
L 455.439273 226.125035 
L 455.540727 226.273017 
L 455.895818 228.49544 
L 455.946545 228.239366 
L 456.098727 229.4633 
L 456.149455 229.346141 
L 456.453818 231.171923 
L 456.504545 231.160645 
L 456.808909 232.717291 
L 456.961091 233.4653 
L 457.519091 236.404055 
L 457.569818 236.350899 
L 457.874182 238.094973 
L 457.975636 238.314526 
L 458.026364 238.987917 
L 458.127818 238.939498 
L 458.330727 240.124858 
L 458.635091 241.544828 
L 460.106182 248.880452 
L 460.156909 248.819277 
L 460.309091 249.838186 
L 460.359818 249.921304 
L 460.512 250.782799 
L 460.867091 252.41037 
L 461.019273 253.244767 
L 461.120727 253.564921 
L 461.323636 254.843474 
L 461.374364 254.831486 
L 461.628 256.440941 
L 461.678727 256.367965 
L 461.729455 256.119475 
L 461.780182 256.348486 
L 461.983091 257.679384 
L 462.490364 260.429516 
L 462.541091 260.364788 
L 462.591818 260.180895 
L 462.744 261.356396 
L 462.794727 261.473426 
L 462.997636 262.509328 
L 463.707818 265.710057 
L 464.468727 269.197813 
L 465.787636 274.972318 
L 466.041273 275.995258 
L 466.193455 276.378451 
L 466.447091 277.74637 
L 466.65 278.658279 
L 466.700727 278.558776 
L 468.374727 285.312177 
L 468.476182 285.19712 
L 468.628364 286.200146 
L 468.679091 285.836965 
L 468.729818 287.184719 
L 468.831273 287.11175 
L 468.882 287.126174 
L 470.302364 291.870011 
L 470.353091 291.745195 
L 470.403818 291.362694 
L 470.454545 291.568007 
L 470.606727 292.46862 
L 470.657455 292.450986 
L 470.708182 292.468609 
L 470.860364 293.277725 
L 470.911091 293.281554 
L 471.114 293.914513 
L 471.164727 293.778437 
L 471.215455 293.830302 
L 471.469091 294.808302 
L 471.570545 294.337265 
L 471.722727 294.868269 
L 471.874909 295.171078 
L 472.077818 296.034683 
L 472.128545 295.770823 
L 472.179273 295.984177 
L 472.331455 295.664748 
L 472.432909 296.357597 
L 472.483636 296.321706 
L 472.534364 296.192563 
L 472.585091 296.36681 
L 472.788 297.157013 
L 472.838727 297.0413 
L 472.940182 297.78384 
L 473.041636 297.757525 
L 473.092364 297.475249 
L 473.143091 297.6957 
L 473.193818 297.927821 
L 473.244545 297.745901 
L 473.295273 297.819 
L 473.396727 298.40039 
L 473.447455 298.178845 
L 473.498182 298.381576 
L 473.548909 298.729929 
L 473.599636 298.644148 
L 473.650364 298.302638 
L 473.751818 299.084156 
L 473.802545 298.936344 
L 474.106909 299.791876 
L 474.259091 298.866629 
L 474.512727 299.967191 
L 474.766364 300.079515 
L 474.969273 299.347026 
L 475.121455 300.055232 
L 475.172182 300.058847 
L 475.375091 300.570064 
L 475.476545 300.035847 
L 475.527273 300.105002 
L 475.679455 301.054371 
L 475.730182 300.923328 
L 475.780909 300.760778 
L 475.933091 301.159196 
L 475.983818 301.093353 
L 476.034545 301.336771 
L 476.085273 301.193699 
L 476.136 300.944489 
L 476.186727 300.973548 
L 476.237455 301.20708 
L 476.288182 300.966656 
L 476.338909 300.748359 
L 476.541818 301.773706 
L 476.592545 301.766331 
L 476.694 301.404003 
L 476.744727 301.634137 
L 476.795455 301.607566 
L 476.846182 301.571427 
L 477.049091 301.975675 
L 477.201273 301.690139 
L 477.252 301.937753 
L 477.302727 301.842746 
L 477.505636 302.009621 
L 477.657818 302.290783 
L 477.81 302.156045 
L 477.962182 302.211642 
L 478.114364 302.497212 
L 478.317273 302.058138 
L 478.368 302.18464 
L 478.723091 302.435015 
L 478.875273 302.434407 
L 479.179636 302.976465 
L 479.230364 302.857331 
L 479.281091 302.96932 
L 479.382545 302.877796 
L 479.484 303.112656 
L 479.636182 302.855052 
L 479.737636 303.119934 
L 479.788364 303.071966 
L 480.042 303.583321 
L 480.194182 303.44755 
L 480.244909 303.331462 
L 480.295636 303.441704 
L 480.549273 303.538471 
L 480.701455 303.276353 
L 480.904364 303.667585 
L 480.955091 303.550245 
L 481.005818 303.636248 
L 481.107273 303.626018 
L 481.208727 303.497761 
L 481.259455 303.605942 
L 481.360909 303.830818 
L 481.411636 303.806475 
L 481.665273 303.833227 
L 481.766727 303.875035 
L 481.918909 303.83451 
L 482.020364 303.956598 
L 482.172545 303.679741 
L 482.274 303.881897 
L 482.324727 303.816952 
L 482.426182 303.675055 
L 482.476909 303.949091 
L 482.527636 303.792065 
L 482.679818 303.740139 
L 482.882727 304.141948 
L 483.136364 304.217752 
L 483.339273 304.347842 
L 483.39 304.223161 
L 483.491455 304.2681 
L 483.542182 304.165166 
L 483.592909 304.272582 
L 483.643636 304.252905 
L 483.694364 304.355216 
L 483.745091 304.20174 
L 483.795818 304.230089 
L 483.846545 304.325237 
L 483.897273 304.150203 
L 483.948 304.293462 
L 484.049455 304.356423 
L 484.201636 304.501522 
L 484.252364 304.613329 
L 484.303091 304.540281 
L 484.353818 304.517534 
L 484.506 304.237772 
L 484.607455 304.225938 
L 484.810364 303.875565 
L 485.114727 303.072852 
L 485.520545 300.383468 
L 485.926364 294.415216 
L 486.230727 284.990181 
L 486.788727 265.112425 
L 487.296 254.722834 
L 487.752545 249.909489 
L 488.158364 247.965591 
L 488.462727 247.441507 
L 488.767091 247.438372 
L 489.528 248.38536 
L 489.933818 249.008502 
L 490.846909 250.140143 
L 491.303455 250.311266 
L 491.607818 250.340566 
L 491.861455 250.477736 
L 492.318 250.482359 
L 493.129636 250.396282 
L 493.586182 250.169303 
L 494.042727 249.905361 
L 494.600727 249.515182 
L 494.955818 249.238724 
L 496.274727 248.084393 
L 496.680545 247.719296 
L 497.035636 247.45295 
L 497.441455 247.073989 
L 498.506727 245.948285 
L 499.724182 244.55725 
L 500.637273 243.456363 
L 503.021455 240.498634 
L 503.731636 239.558672 
L 504.999818 237.8237 
L 511.797273 227.69071 
L 518.290364 217.350112 
L 519.761455 215.03873 
L 520.065818 214.631372 
L 520.319455 214.242166 
L 520.623818 213.745168 
L 522.754364 210.73763 
L 523.160182 210.137836 
L 523.363091 209.9147 
L 525.037091 207.783603 
L 525.290727 207.473775 
L 525.544364 207.147872 
L 529.602545 203.157107 
L 529.704 203.146327 
L 530.667818 202.434312 
L 530.82 202.351443 
L 530.972182 202.172987 
L 531.022909 202.215819 
L 531.327273 202.029932 
L 531.682364 201.730433 
L 531.834545 201.559247 
L 532.341818 201.392521 
L 532.544727 201.285574 
L 532.646182 201.269259 
L 533.001273 201.026675 
L 533.762182 200.776499 
L 533.863636 200.825742 
L 534.370909 200.543122 
L 534.421636 200.653323 
L 534.472364 200.629038 
L 534.776727 200.496501 
L 534.878182 200.45652 
L 535.385455 200.335653 
L 535.537636 200.401563 
L 535.994182 200.363949 
L 536.298545 200.383922 
L 536.602909 200.245764 
L 536.704364 200.332308 
L 536.856545 200.294859 
L 536.958 200.402049 
L 537.008727 200.319136 
L 537.110182 200.204629 
L 537.160909 200.316579 
L 537.414545 200.221616 
L 537.465273 200.366107 
L 537.516 200.341314 
L 537.617455 200.270507 
L 537.668182 200.401504 
L 537.718909 200.322049 
L 537.921818 200.19436 
L 538.226182 200.273321 
L 538.378364 200.158623 
L 538.581273 200.375393 
L 538.682727 200.349015 
L 538.784182 200.450873 
L 538.834909 200.387623 
L 538.987091 200.267861 
L 539.088545 200.297034 
L 539.139273 200.548991 
L 539.19 200.473056 
L 539.748 200.704468 
L 539.798727 200.530856 
L 539.849455 200.66176 
L 540.864 200.909098 
L 540.965455 201.020015 
L 541.016182 200.915903 
L 541.422 201.14418 
L 541.472727 201.061746 
L 541.523455 201.189895 
L 541.624909 201.209724 
L 541.777091 201.29078 
L 541.929273 201.252934 
L 542.081455 201.420591 
L 542.893091 201.664778 
L 542.943818 201.901028 
L 543.045273 201.87807 
L 543.197455 201.996101 
L 543.298909 201.93183 
L 543.451091 202.16449 
L 543.603273 202.085 
L 543.755455 202.187403 
L 543.958364 202.349874 
L 544.313455 202.579019 
L 544.414909 202.687393 
L 544.465636 202.582292 
L 544.516364 202.660372 
L 544.668545 202.804774 
L 544.719273 202.760333 
L 544.820727 202.916071 
L 544.871455 202.885682 
L 545.125091 203.173017 
L 545.378727 203.193508 
L 545.632364 203.485189 
L 545.683091 203.448121 
L 545.936727 203.718082 
L 546.088909 203.778302 
L 546.241091 204.011691 
L 546.444 203.954655 
L 546.697636 204.328314 
L 546.849818 204.305889 
L 547.002 204.583532 
L 547.407818 204.86578 
L 548.219455 205.606529 
L 548.270182 205.487449 
L 548.422364 205.743364 
L 548.523818 205.844942 
L 548.726727 206.153891 
L 548.777455 206.101354 
L 548.828182 206.187124 
L 548.878909 206.367458 
L 548.929636 206.318336 
L 548.980364 206.203751 
L 549.132545 206.485434 
L 549.183273 206.491415 
L 549.386182 206.735644 
L 549.436909 206.712951 
L 549.487636 206.927574 
L 549.538364 206.901345 
L 549.589091 206.873326 
L 549.741273 207.104662 
L 549.842727 207.166828 
L 549.994909 207.353895 
L 550.045636 207.291758 
L 550.248545 207.689267 
L 550.35 207.703644 
L 550.400727 207.844813 
L 550.451455 207.753702 
L 550.502182 207.760531 
L 550.755818 208.202538 
L 550.857273 208.097953 
L 551.009455 208.404014 
L 551.212364 208.621851 
L 551.466 208.851051 
L 551.821091 209.314451 
L 552.074727 209.545685 
L 552.125455 209.797637 
L 552.176182 209.731794 
L 552.226909 209.729275 
L 552.429818 210.006872 
L 552.531273 210.091689 
L 553.089273 210.846435 
L 553.241455 210.916213 
L 553.393636 211.131696 
L 555.524182 213.891545 
L 555.574909 213.826075 
L 555.625636 214.126914 
L 555.727091 214.093184 
L 556.082182 214.583365 
L 556.234364 214.779759 
L 556.437273 214.964769 
L 556.488 215.353477 
L 556.589455 215.330277 
L 557.756182 216.90182 
L 557.908364 217.313292 
L 558.060545 217.370496 
L 558.263455 217.768034 
L 558.415636 217.847687 
L 558.567818 218.231531 
L 558.770727 218.432128 
L 559.125818 219.03262 
L 559.227273 219.107727 
L 559.785273 219.987991 
L 559.836 219.958902 
L 559.988182 220.288458 
L 560.089636 220.374343 
L 561.357818 222.402685 
L 561.459273 222.386005 
L 561.611455 222.774887 
L 561.662182 222.733368 
L 561.865091 223.259766 
L 561.966545 223.286678 
L 562.676727 224.556564 
L 562.879636 224.821155 
L 563.133273 225.241152 
L 563.589818 225.998553 
L 563.640545 225.932129 
L 563.792727 226.514346 
L 563.843455 226.423644 
L 563.894182 226.485746 
L 564.046364 226.81681 
L 564.604364 227.685507 
L 565.060909 228.461354 
L 565.111636 228.398552 
L 565.466727 229.144941 
L 565.517455 229.172264 
L 565.771091 229.687636 
L 565.923273 229.795825 
L 565.974 230.053385 
L 566.024727 230.012169 
L 566.075455 229.974372 
L 566.278364 230.545996 
L 566.329091 230.508462 
L 566.481273 230.845572 
L 570.184364 237.546726 
L 570.235091 237.49359 
L 570.387273 237.928477 
L 570.488727 237.945649 
L 570.691636 238.485911 
L 570.742364 238.409555 
L 570.793091 238.878033 
L 570.843818 238.771714 
L 570.894545 238.762542 
L 571.249636 239.702693 
L 571.300364 239.609456 
L 571.351091 239.624775 
L 571.706182 240.3845 
L 573.329455 243.453391 
L 573.380182 243.393413 
L 573.430909 243.738388 
L 573.481636 243.58212 
L 573.532364 243.579449 
L 573.735273 244.064164 
L 573.786 244.091925 
L 573.938182 244.405051 
L 574.039636 244.486746 
L 574.293273 245.06682 
L 574.344 245.069873 
L 574.546909 245.531111 
L 574.699091 245.776177 
L 574.902 246.08326 
L 574.952727 246.079465 
L 575.104909 246.621165 
L 575.155636 246.587002 
L 575.713636 247.618759 
L 575.764364 247.65787 
L 575.815091 247.953075 
L 575.916545 247.907085 
L 575.967273 247.901628 
L 576.220909 248.730391 
L 576.322364 248.588981 
L 576.373091 249.021544 
L 576.423818 248.804049 
L 576.626727 249.195633 
L 576.677455 249.703374 
L 576.778909 249.638364 
L 576.880364 249.744445 
L 577.032545 250.14351 
L 577.336909 250.726654 
L 577.387636 250.767603 
L 577.590545 251.263979 
L 577.742727 251.513917 
L 577.793455 251.452348 
L 577.945636 251.98245 
L 577.996364 251.938139 
L 578.047091 252.426956 
L 578.148545 252.409164 
L 578.25 252.455338 
L 578.402182 252.895447 
L 579.061636 254.163008 
L 579.112364 254.014795 
L 579.163091 254.479053 
L 579.264545 254.455282 
L 579.315273 254.381228 
L 579.467455 254.936061 
L 579.568909 255.030153 
L 579.924 255.83268 
L 579.974727 255.81661 
L 580.177636 256.088405 
L 580.228364 255.841739 
L 580.380545 257.067986 
L 580.431273 256.594154 
L 580.482 256.745104 
L 580.837091 257.467079 
L 580.887818 257.466804 
L 581.04 257.833963 
L 581.445818 258.766451 
L 581.598 258.806178 
L 582.105273 259.958243 
L 582.156 259.912857 
L 582.206727 259.937837 
L 582.460364 260.544764 
L 582.511091 260.582953 
L 582.714 261.111812 
L 582.916909 261.326189 
L 583.069091 261.864883 
L 583.119818 261.82661 
L 583.170545 261.846741 
L 583.221273 262.167294 
L 583.322727 262.138244 
L 583.525636 262.744065 
L 583.576364 262.69327 
L 583.728545 262.939846 
L 583.931455 263.353845 
L 584.032909 263.500493 
L 584.134364 263.214681 
L 584.235818 264.705575 
L 584.337273 263.556152 
L 584.388 264.945929 
L 584.438727 264.176162 
L 584.641636 264.889412 
L 584.692364 264.826553 
L 585.047455 265.534903 
L 585.148909 265.597916 
L 585.656182 266.613679 
L 585.757636 266.484581 
L 585.909818 267.023334 
L 586.924364 268.855741 
L 586.975091 268.766294 
L 587.025818 268.779292 
L 587.178 269.264004 
L 587.279455 269.470905 
L 587.482364 269.856017 
L 588.192545 271.201428 
L 588.243273 271.172954 
L 588.294 271.252684 
L 588.446182 271.635296 
L 588.699818 272.179277 
L 588.750545 272.186194 
L 589.004182 272.760692 
L 589.054909 272.778146 
L 589.207091 273.006899 
L 589.663636 274.029984 
L 589.765091 274.193462 
L 590.018727 274.668925 
L 590.120182 274.782264 
L 590.728909 275.921188 
L 590.881091 275.988621 
L 591.033273 276.290338 
L 591.591273 277.393014 
L 591.642 277.252399 
L 591.844909 277.809498 
L 591.895636 277.771074 
L 592.098545 278.337847 
L 592.250727 278.495756 
L 592.402909 278.75844 
L 592.453636 278.817634 
L 592.707273 279.456959 
L 592.910182 279.77739 
L 593.062364 280.014171 
L 593.163818 279.970005 
L 593.214545 280.65157 
L 593.316 280.59027 
L 593.366727 280.568394 
L 593.417455 280.903078 
L 593.468182 280.8538 
L 593.518909 280.687299 
L 593.569636 280.84781 
L 593.620364 280.88117 
L 593.924727 281.657532 
L 594.026182 281.805827 
L 594.229091 282.259902 
L 594.381273 282.539696 
L 594.432 282.397306 
L 594.634909 283.195012 
L 594.736364 283.128186 
L 594.99 283.527887 
L 595.040727 283.403263 
L 595.142182 283.778165 
L 595.192909 283.731113 
L 595.243636 283.573606 
L 595.395818 284.177293 
L 595.446545 284.211133 
L 595.598727 284.677845 
L 595.649455 284.674991 
L 595.801636 284.887128 
L 595.852364 284.772889 
L 595.953818 285.952657 
L 596.055273 285.270745 
L 596.207455 285.739176 
L 596.410364 286.234598 
L 596.765455 286.689346 
L 596.917636 286.972939 
L 596.968364 286.981972 
L 597.171273 287.68524 
L 597.323455 287.645686 
L 597.627818 288.430886 
L 597.729273 288.423994 
L 597.830727 288.798448 
L 597.881455 288.790512 
L 598.490182 289.841261 
L 598.642364 290.214554 
L 598.693091 290.18094 
L 599.098909 290.987994 
L 599.403273 291.392901 
L 599.504727 291.288521 
L 599.656909 291.773715 
L 599.707636 291.748874 
L 599.961273 292.281473 
L 600.012 292.380552 
L 600.062727 292.3275 
L 600.113455 292.230772 
L 600.367091 293.021846 
L 600.417818 293.032818 
L 600.722182 293.779756 
L 600.874364 293.861631 
L 600.925091 293.896419 
L 601.128 294.413614 
L 601.229455 294.551252 
L 601.280182 294.486786 
L 601.381636 294.456551 
L 601.432364 295.01515 
L 601.533818 294.980323 
L 601.584545 295.131491 
L 601.635273 294.957362 
L 601.686 294.843749 
L 601.838182 295.509893 
L 601.990364 295.758287 
L 602.091818 295.500487 
L 602.294727 296.126466 
L 602.345455 296.16578 
L 602.396182 295.931403 
L 602.599091 296.653466 
L 602.700545 296.679352 
L 602.802 296.940725 
L 602.852727 296.823275 
L 602.903455 297.091894 
L 602.954182 297.0687 
L 603.004909 296.735851 
L 603.055636 296.868113 
L 603.106364 296.92201 
L 603.258545 297.574877 
L 603.309273 297.627669 
L 603.36 297.538176 
L 603.410727 297.476457 
L 603.562909 298.329115 
L 603.664364 298.462592 
L 603.715091 298.564621 
L 603.765818 298.508241 
L 603.867273 298.546639 
L 603.918 298.641632 
L 603.968727 298.322975 
L 604.019455 298.672647 
L 604.374545 299.261621 
L 604.526727 299.097952 
L 604.678909 300.122865 
L 604.831091 300.101222 
L 604.932545 299.953016 
L 604.983273 300.130156 
L 605.034 300.179382 
L 605.186182 300.716988 
L 605.287636 300.731369 
L 605.338364 300.463339 
L 605.490545 301.140282 
L 605.541273 301.16858 
L 605.642727 300.623414 
L 605.693455 300.944904 
L 605.845636 301.561428 
L 605.997818 301.674149 
L 606.048545 301.446447 
L 606.099273 301.608096 
L 606.15 301.584666 
L 606.352909 302.126215 
L 606.454364 302.003146 
L 606.555818 302.389372 
L 606.606545 302.356891 
L 606.657273 302.394369 
L 606.708 302.296816 
L 606.758727 302.281416 
L 606.860182 302.716418 
L 606.910909 302.706878 
L 607.113818 303.016312 
L 607.266 303.048613 
L 607.367455 302.967297 
L 607.519636 302.196105 
L 607.621091 303.187594 
L 607.671818 303.150349 
L 607.722545 303.041873 
L 607.925455 303.631832 
L 608.077636 303.642215 
L 608.128364 303.37925 
L 608.280545 303.991046 
L 608.432727 303.701075 
L 608.584909 304.106889 
L 608.787818 304.386744 
L 608.838545 304.24711 
L 608.889273 304.232106 
L 608.990727 303.716517 
L 609.142909 304.450292 
L 609.345818 304.602214 
L 609.498 304.767439 
L 609.650182 304.717175 
L 609.751636 304.628556 
L 609.903818 304.964784 
L 609.954545 304.702415 
L 610.005273 305.052045 
L 610.056 304.960783 
L 610.258909 304.334997 
L 610.309636 304.519578 
L 610.461818 305.181802 
L 610.563273 305.244139 
L 610.766182 305.435662 
L 610.969091 304.67207 
L 611.070545 305.139956 
L 611.121273 305.088086 
L 611.425636 305.656318 
L 611.476364 305.609145 
L 611.679273 305.609303 
L 611.73 305.831676 
L 611.831455 305.798684 
L 611.932909 305.518757 
L 612.034364 306.003952 
L 612.085091 305.969358 
L 612.135818 305.913328 
L 612.338727 306.186028 
L 612.490909 306.254881 
L 612.541636 306.237798 
L 612.693818 306.498674 
L 612.795273 306.08122 
L 612.846 306.263841 
L 612.998182 306.865404 
L 613.150364 306.900457 
L 613.251818 306.140091 
L 613.302545 306.672197 
L 613.404 306.624793 
L 613.454727 306.515179 
L 613.606909 306.967203 
L 613.708364 306.918019 
L 613.911273 307.124995 
L 613.962 306.933272 
L 614.012727 307.112805 
L 614.114182 307.268424 
L 614.164909 307.245309 
L 614.317091 307.013813 
L 614.367818 307.188102 
L 614.418545 307.353825 
L 614.469273 307.315776 
L 614.570727 307.059873 
L 614.773636 307.520952 
L 614.875091 307.421861 
L 615.078 307.720509 
L 615.179455 307.736919 
L 615.331636 307.198283 
L 615.382364 307.620978 
L 615.483818 307.575983 
L 615.534545 307.572489 
L 615.686727 307.73476 
L 615.737455 307.603863 
L 615.788182 307.654321 
L 615.940364 307.741314 
L 616.092545 307.621762 
L 616.143273 307.771273 
L 616.295455 307.586657 
L 616.549091 307.764099 
L 616.650545 307.444831 
L 616.701273 307.596647 
L 617.056364 307.785508 
L 617.31 307.470245 
L 617.512909 307.496921 
L 617.614364 307.354526 
L 617.715818 307.775318 
L 617.766545 307.755936 
L 617.918727 307.736461 
L 618.020182 307.770505 
L 618.223091 307.56759 
L 618.273818 307.689905 
L 618.324545 307.591059 
L 618.476727 307.35648 
L 618.527455 307.399223 
L 618.578182 307.604736 
L 618.628909 307.519281 
L 618.679636 307.468404 
L 618.730364 307.556258 
L 619.034727 307.732251 
L 619.085455 307.690827 
L 619.136182 307.77552 
L 619.440545 307.761357 
L 619.542 307.516724 
L 619.592727 307.532256 
L 619.643455 307.49943 
L 619.694182 307.611566 
L 619.744909 307.538532 
L 619.795636 307.511106 
L 619.846364 307.687449 
L 619.897091 307.590177 
L 620.049273 307.483704 
L 620.1 307.606577 
L 620.150727 307.543288 
L 620.201455 307.280959 
L 620.252182 307.344116 
L 620.404364 307.400858 
L 620.759455 307.54111 
L 620.962364 307.227581 
L 621.013091 307.320732 
L 621.063818 307.191858 
L 621.165273 307.116902 
L 621.317455 307.683456 
L 621.368182 307.566026 
L 621.520364 307.578442 
L 621.723273 307.444305 
L 621.824727 307.581828 
L 621.875455 307.447124 
L 622.078364 307.155909 
L 622.129091 307.275483 
L 622.332 307.278735 
L 622.382727 307.214024 
L 622.484182 307.359595 
L 622.636364 307.063183 
L 622.636364 307.063183 
" style="fill:none;stroke:#ff0000;stroke-linecap:square;stroke-width:1.5;"/>
   </g>
   <g id="line2d_13">
    <path clip-path="url(#p14a0a74996)" d="M 115.363636 307.8 
L 131.089091 307.796525 
L 134.944364 307.781093 
L 135.400909 307.772333 
L 135.603818 307.779826 
L 136.618364 307.751903 
L 136.821273 307.780259 
L 137.125636 307.742841 
L 137.683636 307.797935 
L 140.270727 307.740028 
L 140.625818 307.784945 
L 143.111455 307.781031 
L 143.415818 307.797681 
L 143.821636 307.786908 
L 144.582545 307.798825 
L 146.611636 307.789266 
L 147.474 307.78078 
L 147.727636 307.79765 
L 153.814909 307.769561 
L 154.068545 307.797954 
L 166.598182 307.784163 
L 166.851818 307.77971 
L 168.069273 307.796599 
L 168.373636 307.758689 
L 168.678 307.793986 
L 168.880909 307.77428 
L 169.388182 307.785162 
L 170.757818 307.783264 
L 171.062182 307.779935 
L 171.721636 307.793794 
L 172.786909 307.757926 
L 173.091273 307.792533 
L 174.866727 307.77795 
L 176.134909 307.785461 
L 176.743636 307.745278 
L 176.895818 307.781955 
L 177.048 307.765023 
L 177.352364 307.792618 
L 178.417636 307.779884 
L 179.026364 307.786944 
L 180.294545 307.763485 
L 180.598909 307.780164 
L 182.120727 307.773871 
L 182.881636 307.78933 
L 183.388909 307.762844 
L 183.845455 307.794368 
L 186.178909 307.753632 
L 189.273273 307.757922 
L 192.114 307.717105 
L 192.215455 307.570256 
L 192.266182 307.776975 
L 192.316909 307.71849 
L 192.976364 307.730105 
L 193.077818 307.352809 
L 193.23 307.640429 
L 193.382182 307.773459 
L 193.686545 306.32087 
L 193.737273 306.053274 
L 193.838727 307.351506 
L 193.889455 307.136818 
L 195.462 307.127587 
L 196.476545 307.124984 
L 202.817455 307.045942 
L 203.020364 307.044879 
L 203.426182 307.053928 
L 208.093091 306.959922 
L 208.346727 306.615904 
L 208.752545 305.529828 
L 209.158364 303.999115 
L 209.209091 303.610946 
L 209.259818 304.274503 
L 209.310545 300.359933 
L 209.361273 307.31171 
L 209.412 299.557539 
L 209.462727 303.020483 
L 209.513455 302.25038 
L 210.578727 297.420302 
L 212.404909 289.435919 
L 214.636909 279.352394 
L 217.021091 268.097052 
L 217.173273 267.599523 
L 217.224 267.624942 
L 217.325455 267.845181 
L 217.426909 269.598023 
L 217.731273 274.947758 
L 219.202364 283.816062 
L 219.912545 286.472563 
L 220.216909 287.457735 
L 220.572 288.598805 
L 221.079273 290.118448 
L 221.383636 290.829983 
L 222.043091 292.489268 
L 223.463455 295.329446 
L 224.630182 297.12384 
L 224.883818 297.446572 
L 225.644727 298.366376 
L 225.796909 298.564669 
L 227.268 299.662458 
L 228.586909 300.47936 
L 228.739091 300.56415 
L 229.5 300.964302 
L 229.652182 300.95941 
L 230.210182 301.322128 
L 230.565273 301.410401 
L 231.579818 301.77846 
L 231.782727 301.869436 
L 231.985636 301.979452 
L 232.239273 301.972439 
L 235.282909 302.56444 
L 235.587273 302.587493 
L 237.362727 302.742842 
L 237.514909 302.757354 
L 237.87 302.808095 
L 238.174364 302.897782 
L 238.783091 303.001067 
L 242.993455 303.357045 
L 243.297818 303.364444 
L 243.957273 303.389798 
L 252.327273 303.567753 
L 252.783818 303.607701 
L 266.429455 303.631389 
L 266.784545 303.668854 
L 268.813636 303.696994 
L 270.335455 303.72358 
L 271.197818 303.750432 
L 273.379091 303.776219 
L 273.886364 303.788412 
L 275.103818 303.773892 
L 275.915455 303.796107 
L 276.93 303.782504 
L 277.944545 303.738726 
L 278.451818 303.76917 
L 279.669273 303.831915 
L 281.952 303.814445 
L 282.712909 303.854911 
L 285.401455 303.796667 
L 286.923273 303.413951 
L 288.242182 302.264963 
L 288.546545 302.026463 
L 288.901636 301.79865 
L 289.408909 301.377555 
L 291.996 299.561277 
L 292.097455 299.504305 
L 292.706182 299.209828 
L 293.061273 299.059033 
L 293.264182 299.021552 
L 293.467091 299.107109 
L 293.67 299.154257 
L 294.938182 299.363359 
L 295.090364 299.370385 
L 296.865818 299.759264 
L 297.068727 299.885343 
L 297.525273 299.898138 
L 297.728182 299.937189 
L 298.134 299.998992 
L 300.670364 300.371163 
L 300.873273 300.365585 
L 301.279091 300.546301 
L 301.583455 300.500925 
L 301.837091 300.508343 
L 302.851636 300.645059 
L 303.054545 300.669405 
L 303.257455 300.71613 
L 303.714 300.8045 
L 303.916909 300.736061 
L 304.221273 300.814068 
L 307.569273 301.279437 
L 307.721455 301.257267 
L 308.279455 301.266293 
L 308.634545 301.255127 
L 309.395455 301.466935 
L 309.547636 301.490923 
L 309.801273 301.559941 
L 309.953455 301.58182 
L 310.359273 301.635223 
L 310.612909 301.58081 
L 311.069455 301.527177 
L 311.475273 301.697459 
L 312.084 301.756702 
L 312.337636 301.799171 
L 312.540545 301.885601 
L 312.692727 301.910271 
L 314.214545 301.894711 
L 314.417455 301.792225 
L 314.620364 301.751096 
L 314.874 301.716587 
L 315.330545 301.940911 
L 315.533455 301.971251 
L 317.004545 302.008458 
L 317.258182 301.984007 
L 318.069818 302.257557 
L 318.222 302.18353 
L 318.475636 302.238909 
L 318.729273 302.187593 
L 318.881455 302.200683 
L 319.084364 302.164287 
L 319.490182 302.2124 
L 319.693091 302.26203 
L 319.845273 302.203388 
L 320.048182 302.284264 
L 320.301818 302.223753 
L 320.961273 302.162717 
L 321.214909 302.237957 
L 321.772909 302.455449 
L 321.975818 302.476019 
L 322.280182 302.505275 
L 323.548364 302.26419 
L 323.954182 302.434969 
L 324.461455 302.606794 
L 324.715091 302.613491 
L 324.867273 302.569222 
L 325.323818 302.411264 
L 325.628182 302.488782 
L 325.831091 302.548935 
L 326.541273 302.688583 
L 327.708 302.871696 
L 327.961636 302.724681 
L 328.468909 302.674476 
L 328.874727 302.754459 
L 329.128364 302.717812 
L 329.331273 302.741906 
L 329.534182 302.716525 
L 329.737091 302.736695 
L 330.142909 302.877798 
L 330.396545 302.88174 
L 331.614 302.81799 
L 331.867636 302.875738 
L 333.288 302.91995 
L 333.846 302.913823 
L 334.048909 302.882859 
L 334.302545 302.875404 
L 334.962 303.052973 
L 335.367818 302.98278 
L 336.331636 303.013251 
L 336.686727 303.290977 
L 337.092545 303.95384 
L 337.295455 304.513827 
L 337.701273 306.504646 
L 337.904182 307.707351 
L 338.462182 303.041209 
L 340.440545 285.205223 
L 341.860909 274.105595 
L 343.788545 260.817544 
L 346.122 246.708677 
L 348.404727 234.399875 
L 350.991818 221.738256 
L 351.854182 217.21183 
L 352.716545 211.319354 
L 354.644182 197.975823 
L 355.252909 196.691042 
L 356.368909 195.80745 
L 358.296545 195.291771 
L 358.550182 195.255434 
L 360.477818 194.867908 
L 364.231636 193.882687 
L 365.043273 193.608467 
L 365.347636 193.526456 
L 365.550545 193.413546 
L 365.854909 193.390046 
L 366.565091 193.144531 
L 371.130545 191.614136 
L 371.282727 191.560888 
L 380.007818 188.886325 
L 380.16 188.864743 
L 380.362909 188.835391 
L 380.565818 188.766273 
L 380.819455 188.658602 
L 381.073091 188.544882 
L 389.595273 186.047788 
L 390.508364 186.626154 
L 390.812727 186.490889 
L 392.080909 183.4902 
L 392.638909 181.993198 
L 393.450545 180.041924 
L 393.704182 179.434515 
L 394.566545 177.465295 
L 395.175273 176.478841 
L 397.204364 173.535477 
L 397.407273 173.337909 
L 399.132 171.500747 
L 402.327818 168.958683 
L 403.038 168.637188 
L 403.443818 168.420169 
L 403.697455 168.272269 
L 404.458364 167.756458 
L 404.965636 167.709196 
L 405.168545 167.699231 
L 405.980182 167.413585 
L 406.588909 167.142125 
L 407.451273 167.225521 
L 407.907818 167.32751 
L 408.465818 167.21176 
L 408.871636 166.943356 
L 409.023818 166.816956 
L 410.596364 167.356511 
L 411.357273 167.15404 
L 411.661636 167.440736 
L 412.879091 168.458264 
L 416.379273 171.114776 
L 416.785091 171.580591 
L 417.292364 172.180949 
L 420.234545 175.381675 
L 420.640364 176.120098 
L 421.908545 178.398273 
L 423.024545 180.181984 
L 423.227455 180.519193 
L 425.510182 184.761039 
L 425.814545 185.416901 
L 426.271091 186.390257 
L 426.626182 187.190464 
L 427.032 187.990549 
L 427.437818 188.806477 
L 427.742182 189.493898 
L 428.046545 190.225977 
L 428.198727 190.5216 
L 428.706 191.781357 
L 429.264 193.128678 
L 430.075636 195.140485 
L 430.532182 196.280695 
L 431.242364 198.202394 
L 431.394545 198.577101 
L 432.256909 200.92665 
L 432.865636 202.5917 
L 433.474364 204.425489 
L 434.691818 207.515382 
L 434.742545 207.511914 
L 435.351273 209.461157 
L 435.554182 210.071446 
L 436.010727 211.473375 
L 436.365818 212.656529 
L 436.467273 212.956584 
L 437.583273 216.478324 
L 437.735455 216.993489 
L 437.938364 217.600122 
L 438.293455 218.761702 
L 438.952909 220.756017 
L 439.206545 221.702423 
L 439.257273 221.743362 
L 440.068909 224.416199 
L 440.221091 224.901233 
L 440.424 225.641886 
L 440.779091 226.867242 
L 441.083455 227.769608 
L 441.286364 228.49445 
L 441.54 229.361531 
L 441.945818 230.691396 
L 442.503818 232.874715 
L 442.554545 232.917945 
L 443.163273 235.266813 
L 443.214 235.321307 
L 443.416909 236.06285 
L 443.467636 236.105741 
L 443.670545 237.014709 
L 443.873455 237.574437 
L 444.076364 238.367539 
L 444.431455 239.534527 
L 445.141636 242.008408 
L 445.344545 242.711648 
L 447.018545 248.887463 
L 447.322909 250.084801 
L 447.576545 251.304341 
L 447.627273 251.076143 
L 447.678 251.204607 
L 447.830182 252.207726 
L 447.880909 252.119736 
L 448.337455 254.134754 
L 448.388182 254.129217 
L 448.794 255.841478 
L 448.844727 255.860096 
L 449.199818 257.232477 
L 449.250545 257.240578 
L 449.605636 258.778917 
L 449.859273 259.587801 
L 450.062182 260.363646 
L 450.315818 261.261692 
L 450.518727 262.169955 
L 450.873818 263.400464 
L 451.076727 264.294086 
L 451.127455 264.371789 
L 451.330364 265.283868 
L 451.584 266.267095 
L 454.526182 277.003922 
L 454.576909 276.78651 
L 454.982727 278.617917 
L 455.692909 281.150256 
L 455.743636 281.109251 
L 455.946545 282.13127 
L 456.200182 282.892576 
L 456.453818 284.104459 
L 456.504545 284.114049 
L 458.077091 289.638286 
L 458.127818 289.501791 
L 458.432182 290.721721 
L 458.482909 290.446474 
L 458.533636 290.602559 
L 458.685818 291.366645 
L 458.787273 291.562236 
L 458.939455 292.244291 
L 458.990182 292.220759 
L 459.142364 292.898704 
L 459.801818 295.025353 
L 459.852545 294.976711 
L 459.903273 294.638241 
L 460.004727 295.283193 
L 460.055455 295.118991 
L 460.156909 295.081756 
L 460.309091 296.129222 
L 460.359818 296.095916 
L 460.512 296.808491 
L 460.613455 297.028489 
L 460.765636 297.299668 
L 460.867091 297.502822 
L 461.019273 298.214545 
L 461.120727 298.113479 
L 461.272909 298.942418 
L 461.475818 299.551055 
L 461.577273 299.722893 
L 461.628 300.283727 
L 461.678727 300.232426 
L 461.780182 299.418515 
L 461.830909 299.689235 
L 462.084545 300.890591 
L 462.135273 300.866793 
L 462.186 300.659447 
L 462.236727 300.853112 
L 462.541091 302.175522 
L 462.591818 301.871414 
L 462.744 302.657914 
L 462.794727 302.634201 
L 462.845455 302.977086 
L 462.946909 302.960762 
L 463.048364 303.1774 
L 463.099091 302.706538 
L 463.149818 303.12262 
L 463.200545 303.080796 
L 463.352727 303.805434 
L 463.504909 304.144409 
L 463.657091 303.98182 
L 463.758545 303.890988 
L 463.910727 304.446705 
L 464.012182 304.030712 
L 464.113636 304.586756 
L 464.164364 304.526071 
L 464.215091 304.61201 
L 464.265818 304.471643 
L 464.316545 305.122551 
L 464.367273 305.047168 
L 464.570182 304.691272 
L 464.722364 305.794195 
L 464.773091 305.676491 
L 464.823818 305.604429 
L 464.925273 304.802097 
L 464.976 305.337875 
L 465.128182 305.770339 
L 465.178909 305.696367 
L 465.229636 305.710765 
L 465.331091 305.32331 
L 465.534 305.943397 
L 465.584727 305.799085 
L 465.635455 305.81755 
L 465.686182 305.660951 
L 465.736909 305.785592 
L 465.889091 306.201158 
L 465.990545 305.885488 
L 466.041273 305.99839 
L 466.193455 305.661758 
L 466.396364 306.143963 
L 466.548545 306.564921 
L 466.751455 306.143895 
L 466.954364 306.605317 
L 467.055818 306.666332 
L 467.106545 306.797329 
L 467.208 306.595347 
L 467.309455 306.7562 
L 467.360182 306.469147 
L 467.410909 306.759851 
L 467.461636 306.763273 
L 467.613818 306.881763 
L 467.664545 306.785716 
L 467.715273 306.886423 
L 467.867455 307.319919 
L 467.918182 307.215671 
L 467.968909 307.101322 
L 468.019636 307.342315 
L 468.070364 307.258052 
L 468.121091 307.216992 
L 468.171818 307.434792 
L 468.222545 307.36211 
L 468.374727 307.340185 
L 468.476182 306.914666 
L 468.526909 307.057918 
L 468.628364 307.338051 
L 468.679091 306.901068 
L 468.831273 307.582043 
L 468.932727 307.488442 
L 468.983455 307.608647 
L 469.135636 307.262524 
L 469.338545 307.635832 
L 469.44 307.246563 
L 469.490727 307.422289 
L 469.642909 307.684303 
L 469.693636 307.639748 
L 469.744364 307.560856 
L 469.795091 307.665313 
L 469.845818 307.614031 
L 469.947273 307.743363 
L 469.998 307.682693 
L 470.048727 307.770691 
L 470.099455 307.792482 
L 470.150182 307.658072 
L 470.200909 307.686669 
L 470.353091 307.767676 
L 470.454545 307.408721 
L 470.505273 307.499584 
L 470.556 307.534242 
L 470.606727 307.720271 
L 470.657455 307.642155 
L 470.708182 307.57705 
L 470.758909 307.753351 
L 470.809636 307.733055 
L 471.012545 307.49914 
L 471.215455 307.783152 
L 471.469091 307.493728 
L 471.519818 307.780131 
L 471.621273 307.752994 
L 471.672 307.632704 
L 471.722727 307.703582 
L 471.874909 307.695702 
L 471.925636 307.788849 
L 471.976364 307.734065 
L 472.077818 307.50747 
L 472.23 307.766538 
L 472.331455 307.572899 
L 472.382182 307.67593 
L 472.483636 307.755505 
L 472.534364 307.625791 
L 472.585091 307.664953 
L 472.737273 307.769442 
L 472.940182 307.342431 
L 472.990909 307.412723 
L 473.041636 307.421339 
L 473.092364 307.631467 
L 473.143091 307.570776 
L 473.193818 307.482581 
L 473.295273 307.64923 
L 473.396727 307.377537 
L 473.447455 307.560304 
L 473.498182 307.490085 
L 473.548909 307.311474 
L 473.599636 307.394446 
L 473.650364 307.639635 
L 473.751818 307.288076 
L 473.904 307.402337 
L 474.106909 307.074301 
L 474.259091 307.721808 
L 474.309818 307.602912 
L 474.462 307.262507 
L 474.766364 307.336201 
L 474.969273 307.686843 
L 475.172182 307.646179 
L 475.375091 307.42096 
L 475.527273 307.74905 
L 475.628727 307.53795 
L 475.679455 307.266257 
L 475.730182 307.380895 
L 475.780909 307.512906 
L 475.831636 307.406303 
L 476.034545 307.252704 
L 476.338909 307.75535 
L 476.541818 307.194181 
L 476.592545 307.213352 
L 476.694 307.499852 
L 476.744727 307.387167 
L 476.846182 307.472915 
L 476.896909 307.383155 
L 477.049091 307.280263 
L 477.201273 307.539705 
L 477.252 307.412161 
L 477.302727 307.498386 
L 477.505636 307.483119 
L 477.657818 307.338945 
L 477.860727 307.506379 
L 477.962182 307.519923 
L 478.114364 307.364886 
L 478.317273 307.734557 
L 478.418727 307.669949 
L 478.520182 307.64452 
L 478.570909 307.589324 
L 478.621636 307.66971 
L 478.926 307.637876 
L 478.976727 307.461737 
L 479.027455 307.703993 
L 479.078182 307.594309 
L 479.281091 307.438403 
L 479.585455 307.559402 
L 479.636182 307.630028 
L 479.737636 307.477497 
L 479.788364 307.527774 
L 480.092727 307.229239 
L 480.143455 307.187545 
L 480.244909 307.446474 
L 480.295636 307.385397 
L 480.650727 307.492769 
L 480.701455 307.634839 
L 480.752182 307.563854 
L 481.107273 307.484005 
L 481.208727 307.612276 
L 481.259455 307.546964 
L 481.360909 307.394434 
L 481.411636 307.425659 
L 481.817455 307.545332 
L 481.969636 307.498216 
L 482.020364 307.468501 
L 482.071091 307.565575 
L 482.426182 307.766607 
L 482.476909 307.604999 
L 482.527636 307.740108 
L 482.730545 307.707922 
L 482.882727 307.537885 
L 483.288545 307.556484 
L 483.339273 307.465374 
L 483.39 307.581347 
L 483.694364 307.546253 
L 483.795818 307.676799 
L 483.846545 307.609678 
L 483.897273 307.757446 
L 483.948 307.664761 
L 484.049455 307.634701 
L 484.201636 307.544935 
L 484.252364 307.461343 
L 484.303091 307.534774 
L 484.607455 307.691784 
L 484.810364 307.335745 
L 485.114727 306.58168 
L 485.622 303.709143 
L 486.027818 299.24763 
L 486.433636 290.883553 
L 487.549636 261.796857 
L 488.006182 256.13334 
L 488.361273 254.027661 
L 488.614909 253.536292 
L 488.767091 253.553911 
L 488.97 254.036407 
L 489.528 256.065663 
L 490.339636 260.054247 
L 490.796182 261.603587 
L 491.354182 262.741905 
L 491.506364 262.918258 
L 491.962909 263.663921 
L 492.419455 264.143359 
L 492.571636 264.258456 
L 492.926727 264.501496 
L 493.839818 264.431267 
L 494.042727 264.360768 
L 494.296364 264.440625 
L 494.955818 264.864356 
L 495.666 264.81977 
L 496.579091 264.589478 
L 496.984909 264.587546 
L 498.100909 264.279192 
L 498.354545 264.267893 
L 503.782364 262.871107 
L 504.137455 262.80605 
L 504.441818 262.716018 
L 504.746182 262.661979 
L 504.999818 262.595912 
L 505.202727 262.583093 
L 505.405636 262.527139 
L 506.217273 262.350865 
L 506.521636 262.288384 
L 507.891273 261.989711 
L 508.094182 261.966513 
L 508.804364 261.838494 
L 509.311636 261.728232 
L 509.717455 261.635922 
L 511.036364 261.274879 
L 511.29 261.172751 
L 515.500364 260.279141 
L 515.855455 260.227012 
L 516.616364 260.121497 
L 518.036727 259.944974 
L 518.797636 259.845131 
L 519.558545 259.666038 
L 520.573091 259.487646 
L 527.573455 258.678394 
L 535.994182 258.570322 
L 540.711818 259.306796 
L 541.320545 259.453518 
L 542.842364 259.777856 
L 543.045273 259.847729 
L 543.654 259.987539 
L 543.907636 260.049942 
L 545.784545 260.626372 
L 546.139636 260.804028 
L 546.951273 261.052835 
L 547.255636 261.202997 
L 547.458545 261.271638 
L 547.762909 261.424867 
L 548.676 261.77359 
L 548.929636 261.921158 
L 549.031091 261.936721 
L 552.074727 263.408836 
L 552.226909 263.528896 
L 552.582 263.713877 
L 552.835636 263.874958 
L 553.444364 264.205078 
L 553.596545 264.269069 
L 553.799455 264.448012 
L 554.154545 264.649343 
L 554.458909 264.839388 
L 554.661818 264.978829 
L 555.118364 265.23672 
L 555.422727 265.398463 
L 555.676364 265.612757 
L 555.828545 265.698662 
L 556.183636 265.906534 
L 556.437273 265.992459 
L 556.589455 266.195996 
L 558.922909 267.720086 
L 559.125818 268.005267 
L 559.430182 268.065693 
L 559.633091 268.28144 
L 559.886727 268.503997 
L 560.140364 268.625715 
L 560.394 268.865439 
L 561.104182 269.341549 
L 561.307091 269.569418 
L 561.611455 269.807567 
L 561.662182 269.774147 
L 561.712909 269.858179 
L 562.068 270.101329 
L 562.220182 270.352624 
L 562.879636 270.870995 
L 563.133273 271.121117 
L 563.386909 271.327462 
L 563.589818 271.505069 
L 563.640545 271.436199 
L 563.843455 271.769521 
L 563.894182 271.774257 
L 564.097091 271.97662 
L 564.3 272.194726 
L 564.604364 272.343936 
L 564.858 272.567301 
L 565.821818 273.494639 
L 565.923273 273.466961 
L 566.024727 273.656335 
L 566.075455 273.614247 
L 566.379818 274.063389 
L 566.532 274.149053 
L 566.836364 274.458084 
L 566.887091 274.462646 
L 567.039273 274.657072 
L 567.09 274.635591 
L 567.242182 274.866074 
L 570.184364 277.96912 
L 570.235091 277.910435 
L 570.387273 278.115727 
L 570.539455 278.158345 
L 570.793091 278.598613 
L 570.945273 278.602257 
L 571.046727 278.82612 
L 571.097455 278.807618 
L 571.300364 279.121059 
L 571.452545 279.138009 
L 571.706182 279.52916 
L 572.010545 279.804142 
L 572.213455 279.828494 
L 572.365636 280.235169 
L 572.467091 280.247923 
L 572.568545 280.414677 
L 572.619273 280.388321 
L 572.923636 280.449454 
L 573.075818 280.880365 
L 573.177273 280.962763 
L 573.278727 280.993848 
L 573.481636 281.345176 
L 573.684545 281.102948 
L 573.887455 281.617356 
L 574.496182 282.134644 
L 574.648364 282.307141 
L 574.902 282.517867 
L 574.952727 282.424041 
L 575.155636 282.88736 
L 575.307818 283.049393 
L 575.510727 283.321851 
L 575.612182 283.30057 
L 575.916545 283.609895 
L 575.967273 283.529858 
L 576.018 283.614816 
L 576.220909 284.102862 
L 576.322364 284.062982 
L 576.423818 284.272155 
L 576.474545 284.256374 
L 576.829636 284.786119 
L 576.880364 284.751117 
L 577.032545 285.05821 
L 577.945636 286.160279 
L 577.996364 286.103841 
L 578.148545 286.399029 
L 578.25 286.329482 
L 578.402182 286.721644 
L 579.061636 287.482109 
L 579.112364 287.290984 
L 579.163091 287.531879 
L 579.264545 287.718842 
L 579.315273 287.633538 
L 579.568909 288.0282 
L 579.974727 288.532178 
L 580.126909 288.576934 
L 580.177636 288.493855 
L 580.228364 287.990884 
L 580.279091 289.231485 
L 580.329818 288.895131 
L 581.395091 290.045937 
L 581.547273 290.257921 
L 581.648727 290.141052 
L 581.750182 290.688823 
L 581.800909 290.667202 
L 582.054545 290.962793 
L 582.105273 291.043745 
L 582.156 290.964864 
L 582.206727 290.86954 
L 582.257455 290.934595 
L 582.409636 291.302485 
L 582.511091 291.284649 
L 582.714 291.675547 
L 582.866182 291.755699 
L 582.916909 291.657472 
L 583.119818 292.111573 
L 583.170545 292.078445 
L 583.373455 292.423599 
L 583.474909 292.35734 
L 583.627091 292.733612 
L 583.83 292.39435 
L 583.982182 292.932614 
L 584.032909 292.901049 
L 584.134364 292.301031 
L 584.235818 294.034923 
L 584.337273 293.019051 
L 584.388 293.678497 
L 584.489455 293.619838 
L 584.590909 293.640379 
L 584.743091 293.970492 
L 584.793818 294.025966 
L 584.844545 293.873323 
L 584.996727 294.245425 
L 585.047455 294.320551 
L 585.098182 294.267962 
L 585.351818 294.159684 
L 585.554727 294.724919 
L 585.706909 294.652748 
L 585.757636 294.454393 
L 585.909818 294.9294 
L 586.214182 295.356038 
L 586.264909 295.471621 
L 586.315636 295.436155 
L 586.366364 295.349296 
L 586.417091 295.423887 
L 586.518545 295.632212 
L 586.569273 295.517784 
L 586.670727 295.218325 
L 586.822909 295.762555 
L 586.924364 295.909316 
L 587.025818 295.632921 
L 587.228727 296.120036 
L 587.837455 297.037291 
L 587.888182 296.995061 
L 587.989636 296.865199 
L 588.040364 296.918624 
L 588.192545 297.227122 
L 588.294 297.086527 
L 588.446182 297.473554 
L 588.496909 297.606139 
L 588.547636 297.560185 
L 588.598364 297.476957 
L 588.649091 297.582111 
L 588.801273 297.910296 
L 588.852 297.816353 
L 588.902727 297.904859 
L 589.105636 298.253529 
L 589.156364 298.171347 
L 589.207091 298.102965 
L 589.257818 298.161876 
L 589.460727 298.456289 
L 589.866545 299.079333 
L 589.968 299.030912 
L 590.120182 299.084618 
L 590.221636 299.136099 
L 590.373818 299.495549 
L 590.424545 299.572005 
L 590.475273 299.463938 
L 590.576727 299.39403 
L 590.728909 299.744845 
L 590.881091 299.482401 
L 590.982545 299.645752 
L 591.084 299.560534 
L 591.236182 300.043299 
L 591.439091 300.386466 
L 591.591273 300.292758 
L 591.743455 299.942895 
L 591.794182 300.243627 
L 591.844909 300.233245 
L 591.895636 300.065506 
L 591.946364 300.272051 
L 591.997091 300.230692 
L 592.047818 300.311896 
L 592.149273 300.534463 
L 592.2 300.513541 
L 592.250727 300.509039 
L 592.352182 300.751637 
L 592.402909 300.686674 
L 592.453636 300.648008 
L 592.605818 300.85871 
L 592.707273 301.071284 
L 592.859455 301.262803 
L 592.910182 301.14061 
L 593.011636 301.402356 
L 593.062364 301.35404 
L 593.163818 301.083888 
L 593.316 301.705945 
L 593.366727 301.629608 
L 593.468182 301.925166 
L 593.620364 301.697235 
L 593.721818 301.917708 
L 593.772545 301.78711 
L 593.924727 302.267579 
L 594.026182 302.313886 
L 594.178364 302.494604 
L 594.381273 302.805114 
L 594.584182 302.34668 
L 594.685636 303.036154 
L 594.736364 303.028682 
L 594.939273 303.183429 
L 594.99 303.148458 
L 595.040727 302.909864 
L 595.091455 303.117588 
L 595.192909 302.845084 
L 595.243636 302.439657 
L 595.294364 302.863736 
L 595.700182 303.555336 
L 595.750909 303.446739 
L 595.852364 303.130915 
L 595.953818 303.896614 
L 596.004545 303.89074 
L 596.207455 303.851503 
L 596.410364 304.15818 
L 596.562545 304.194288 
L 596.613273 304.153804 
L 596.714727 304.285373 
L 596.765455 304.237621 
L 596.866909 304.416022 
L 596.917636 304.372975 
L 596.968364 304.295106 
L 597.171273 304.835793 
L 597.272727 304.803154 
L 597.323455 304.695992 
L 597.374182 304.776381 
L 597.424909 305.003297 
L 597.475636 304.918295 
L 597.526364 304.825284 
L 597.577091 304.914465 
L 597.78 305.358525 
L 597.932182 305.28782 
L 597.982909 305.175221 
L 598.135091 305.58172 
L 598.185818 305.562906 
L 598.338 305.690201 
L 598.388727 305.566596 
L 598.439455 305.6082 
L 598.490182 305.644172 
L 598.642364 305.936351 
L 598.693091 305.840507 
L 598.743818 305.89044 
L 598.997455 306.237349 
L 599.200364 306.335401 
L 599.251091 306.208417 
L 599.301818 306.319169 
L 599.403273 306.283209 
L 599.504727 305.97945 
L 599.656909 306.278205 
L 599.707636 306.172628 
L 599.758364 306.298841 
L 599.910545 306.543799 
L 600.113455 306.230746 
L 600.164182 306.356439 
L 600.367091 306.761446 
L 600.417818 306.712629 
L 600.57 306.961222 
L 600.671455 306.759158 
L 600.772909 307.149431 
L 600.823636 307.021831 
L 600.874364 307.097676 
L 600.925091 307.078903 
L 601.128 307.454309 
L 601.229455 307.511308 
L 601.381636 307.238604 
L 601.533818 307.677591 
L 601.584545 307.748088 
L 601.686 307.349679 
L 601.736727 307.725107 
L 601.838182 307.663766 
L 601.888909 307.787707 
L 601.939636 307.733601 
L 602.041091 307.735073 
L 602.091818 307.531318 
L 602.142545 307.688636 
L 602.193273 307.79322 
L 602.244 307.718195 
L 602.396182 307.609958 
L 602.446909 307.78066 
L 602.497636 307.668703 
L 602.751273 307.355921 
L 602.802 307.38543 
L 602.852727 307.566436 
L 602.903455 307.401844 
L 603.055636 307.689423 
L 603.106364 307.655516 
L 603.258545 307.367104 
L 603.309273 307.342559 
L 603.410727 307.568766 
L 603.461455 307.150499 
L 603.512182 307.201044 
L 603.613636 307.387688 
L 603.715091 306.998659 
L 603.765818 307.0929 
L 603.918 307.118768 
L 603.968727 307.443013 
L 604.019455 307.277734 
L 604.374545 306.970396 
L 604.526727 307.277093 
L 604.577455 306.75814 
L 604.678909 306.84347 
L 604.780364 306.694903 
L 604.831091 306.745997 
L 605.034 306.871014 
L 605.186182 306.446613 
L 605.287636 306.48434 
L 605.338364 306.721448 
L 605.490545 306.266204 
L 605.541273 306.269148 
L 605.642727 306.738148 
L 605.693455 306.610372 
L 605.744182 306.20931 
L 605.794909 306.254653 
L 605.947091 306.319584 
L 605.997818 306.288869 
L 606.15 306.532547 
L 606.352909 306.154492 
L 606.454364 306.348011 
L 606.555818 306.098272 
L 606.606545 306.167678 
L 606.657273 306.16763 
L 606.758727 306.325535 
L 606.860182 306.027812 
L 606.910909 306.068578 
L 607.063091 305.888545 
L 607.367455 306.084509 
L 607.519636 306.648396 
L 607.621091 306.047535 
L 607.671818 306.141971 
L 607.722545 306.280628 
L 607.773273 306.095566 
L 607.824 306.146483 
L 607.874727 306.157379 
L 607.925455 305.903603 
L 607.976182 305.999169 
L 608.128364 306.297107 
L 608.280545 305.861644 
L 608.432727 306.223954 
L 608.584909 306.017559 
L 608.787818 305.841502 
L 608.838545 305.977666 
L 608.889273 306.008232 
L 608.990727 306.378592 
L 609.193636 305.954417 
L 609.498 305.820732 
L 609.700909 305.940712 
L 609.751636 306.011507 
L 609.903818 305.833651 
L 609.954545 306.073637 
L 610.005273 305.858164 
L 610.258909 306.504073 
L 610.309636 306.409549 
L 610.461818 305.939191 
L 610.563273 305.922024 
L 610.664727 305.811265 
L 610.969091 306.423495 
L 611.019818 306.17331 
L 611.070545 306.189029 
L 611.121273 306.248418 
L 611.172 306.184806 
L 611.324182 305.946296 
L 611.679273 306.002975 
L 611.73 305.849308 
L 611.780727 306.00799 
L 611.831455 305.934495 
L 611.932909 306.191537 
L 612.034364 305.853189 
L 612.085091 305.907484 
L 612.135818 305.970701 
L 612.186545 305.859301 
L 612.744545 305.833626 
L 612.795273 306.054412 
L 612.846 305.940316 
L 612.947455 305.509302 
L 612.998182 305.538214 
L 613.150364 305.549666 
L 613.251818 306.134007 
L 613.302545 305.820811 
L 613.404 305.883537 
L 613.454727 305.978393 
L 613.606909 305.689525 
L 613.708364 305.761653 
L 613.911273 305.643678 
L 613.962 305.81495 
L 614.012727 305.693793 
L 614.063455 305.563188 
L 614.114182 305.590245 
L 614.317091 305.821189 
L 614.367818 305.709566 
L 614.418545 305.589464 
L 614.469273 305.634954 
L 614.570727 305.85366 
L 614.773636 305.545331 
L 614.875091 305.665041 
L 615.027273 305.442311 
L 615.078 305.477675 
L 615.179455 305.477189 
L 615.331636 305.930781 
L 615.382364 305.658878 
L 615.483818 305.718707 
L 615.534545 305.729139 
L 615.636 305.516059 
L 615.686727 305.634072 
L 615.737455 305.745983 
L 615.788182 305.712745 
L 615.889636 305.567047 
L 615.940364 305.677628 
L 616.092545 305.780348 
L 616.143273 305.674092 
L 616.194 305.844975 
L 616.295455 305.514826 
L 616.346182 305.586597 
L 616.396909 305.53249 
L 616.650545 305.985445 
L 616.802727 305.812615 
L 616.853455 305.846308 
L 617.005636 305.768345 
L 617.107091 305.680051 
L 617.31 305.546659 
L 617.411455 305.653872 
L 617.563636 306.112325 
L 617.614364 306.124041 
L 617.665091 305.800022 
L 617.766545 305.820893 
L 617.868 305.797253 
L 618.020182 305.907211 
L 618.223091 305.718298 
L 618.273818 305.828642 
L 618.324545 305.753352 
L 618.476727 305.574295 
L 618.527455 305.62061 
L 618.578182 305.799296 
L 618.628909 305.734865 
L 618.679636 305.696702 
L 618.730364 305.770095 
L 619.085455 306.030053 
L 619.136182 305.934975 
L 619.237636 305.990107 
L 619.288364 306.055758 
L 619.339091 305.947522 
L 619.643455 305.762523 
L 619.694182 305.865818 
L 619.744909 305.808711 
L 619.795636 305.790148 
L 619.846364 305.942238 
L 619.897091 305.866281 
L 620.049273 305.789834 
L 620.1 305.896832 
L 620.150727 305.847595 
L 620.201455 305.636858 
L 620.252182 305.708257 
L 620.404364 305.771775 
L 620.759455 305.899035 
L 620.962364 305.653771 
L 621.013091 305.743535 
L 621.063818 305.637776 
L 621.165273 305.582325 
L 621.317455 306.051459 
L 621.368182 305.956738 
L 621.520364 305.96282 
L 621.723273 305.862737 
L 621.824727 305.980495 
L 621.875455 305.871103 
L 622.078364 305.632613 
L 622.129091 305.752819 
L 622.484182 305.843582 
L 622.636364 305.570498 
L 622.636364 305.570498 
" style="fill:none;stroke:#008000;stroke-linecap:square;stroke-width:1.5;"/>
   </g>
   <g id="patch_3">
    <path d="M 90 320.4 
L 90 43.2 
" style="fill:none;stroke:#000000;stroke-linecap:square;stroke-linejoin:miter;stroke-width:0.8;"/>
   </g>
   <g id="patch_4">
    <path d="M 648 320.4 
L 648 43.2 
" style="fill:none;stroke:#000000;stroke-linecap:square;stroke-linejoin:miter;stroke-width:0.8;"/>
   </g>
   <g id="patch_5">
    <path d="M 90 320.4 
L 648 320.4 
" style="fill:none;stroke:#000000;stroke-linecap:square;stroke-linejoin:miter;stroke-width:0.8;"/>
   </g>
   <g id="patch_6">
    <path d="M 90 43.2 
L 648 43.2 
" style="fill:none;stroke:#000000;stroke-linecap:square;stroke-linejoin:miter;stroke-width:0.8;"/>
   </g>
   <g id="legend_1">
    <g id="patch_7">
     <path d="M 97 80.55625 
L 252.723437 80.55625 
Q 254.723437 80.55625 254.723437 78.55625 
L 254.723437 50.2 
Q 254.723437 48.2 252.723437 48.2 
L 97 48.2 
Q 95 48.2 95 50.2 
L 95 78.55625 
Q 95 80.55625 97 80.55625 
z
" style="fill:#ffffff;opacity:0.8;stroke:#cccccc;stroke-linejoin:miter;"/>
    </g>
    <g id="patch_8">
     <path d="M 99 59.798437 
L 119 59.798437 
L 119 52.798437 
L 99 52.798437 
z
" style="fill:#ff0000;stroke:#ff0000;stroke-linejoin:miter;"/>
    </g>
    <g id="text_14">
     <!-- Without speed estimator -->
     <g transform="translate(127 59.798437)scale(0.1 -0.1)">
      <defs>
       <path d="M 3.328125 72.90625 
L 13.28125 72.90625 
L 28.609375 11.28125 
L 43.890625 72.90625 
L 54.984375 72.90625 
L 70.3125 11.28125 
L 85.59375 72.90625 
L 95.609375 72.90625 
L 77.296875 0 
L 64.890625 0 
L 49.515625 63.28125 
L 33.984375 0 
L 21.578125 0 
z
" id="DejaVuSans-87"/>
       <path d="M 54.890625 33.015625 
L 54.890625 0 
L 45.90625 0 
L 45.90625 32.71875 
Q 45.90625 40.484375 42.875 44.328125 
Q 39.84375 48.1875 33.796875 48.1875 
Q 26.515625 48.1875 22.3125 43.546875 
Q 18.109375 38.921875 18.109375 30.90625 
L 18.109375 0 
L 9.078125 0 
L 9.078125 75.984375 
L 18.109375 75.984375 
L 18.109375 46.1875 
Q 21.34375 51.125 25.703125 53.5625 
Q 30.078125 56 35.796875 56 
Q 45.21875 56 50.046875 50.171875 
Q 54.890625 44.34375 54.890625 33.015625 
z
" id="DejaVuSans-104"/>
       <path d="M 30.609375 48.390625 
Q 23.390625 48.390625 19.1875 42.75 
Q 14.984375 37.109375 14.984375 27.296875 
Q 14.984375 17.484375 19.15625 11.84375 
Q 23.34375 6.203125 30.609375 6.203125 
Q 37.796875 6.203125 41.984375 11.859375 
Q 46.1875 17.53125 46.1875 27.296875 
Q 46.1875 37.015625 41.984375 42.703125 
Q 37.796875 48.390625 30.609375 48.390625 
z
M 30.609375 56 
Q 42.328125 56 49.015625 48.375 
Q 55.71875 40.765625 55.71875 27.296875 
Q 55.71875 13.875 49.015625 6.21875 
Q 42.328125 -1.421875 30.609375 -1.421875 
Q 18.84375 -1.421875 12.171875 6.21875 
Q 5.515625 13.875 5.515625 27.296875 
Q 5.515625 40.765625 12.171875 48.375 
Q 18.84375 56 30.609375 56 
z
" id="DejaVuSans-111"/>
       <path d="M 8.5 21.578125 
L 8.5 54.6875 
L 17.484375 54.6875 
L 17.484375 21.921875 
Q 17.484375 14.15625 20.5 10.265625 
Q 23.53125 6.390625 29.59375 6.390625 
Q 36.859375 6.390625 41.078125 11.03125 
Q 45.3125 15.671875 45.3125 23.6875 
L 45.3125 54.6875 
L 54.296875 54.6875 
L 54.296875 0 
L 45.3125 0 
L 45.3125 8.40625 
Q 42.046875 3.421875 37.71875 1 
Q 33.40625 -1.421875 27.6875 -1.421875 
Q 18.265625 -1.421875 13.375 4.4375 
Q 8.5 10.296875 8.5 21.578125 
z
M 31.109375 56 
z
" id="DejaVuSans-117"/>
       <path d="M 45.40625 46.390625 
L 45.40625 75.984375 
L 54.390625 75.984375 
L 54.390625 0 
L 45.40625 0 
L 45.40625 8.203125 
Q 42.578125 3.328125 38.25 0.953125 
Q 33.9375 -1.421875 27.875 -1.421875 
Q 17.96875 -1.421875 11.734375 6.484375 
Q 5.515625 14.40625 5.515625 27.296875 
Q 5.515625 40.1875 11.734375 48.09375 
Q 17.96875 56 27.875 56 
Q 33.9375 56 38.25 53.625 
Q 42.578125 51.265625 45.40625 46.390625 
z
M 14.796875 27.296875 
Q 14.796875 17.390625 18.875 11.75 
Q 22.953125 6.109375 30.078125 6.109375 
Q 37.203125 6.109375 41.296875 11.75 
Q 45.40625 17.390625 45.40625 27.296875 
Q 45.40625 37.203125 41.296875 42.84375 
Q 37.203125 48.484375 30.078125 48.484375 
Q 22.953125 48.484375 18.875 42.84375 
Q 14.796875 37.203125 14.796875 27.296875 
z
" id="DejaVuSans-100"/>
       <path d="M 34.28125 27.484375 
Q 23.390625 27.484375 19.1875 25 
Q 14.984375 22.515625 14.984375 16.5 
Q 14.984375 11.71875 18.140625 8.90625 
Q 21.296875 6.109375 26.703125 6.109375 
Q 34.1875 6.109375 38.703125 11.40625 
Q 43.21875 16.703125 43.21875 25.484375 
L 43.21875 27.484375 
z
M 52.203125 31.203125 
L 52.203125 0 
L 43.21875 0 
L 43.21875 8.296875 
Q 40.140625 3.328125 35.546875 0.953125 
Q 30.953125 -1.421875 24.3125 -1.421875 
Q 15.921875 -1.421875 10.953125 3.296875 
Q 6 8.015625 6 15.921875 
Q 6 25.140625 12.171875 29.828125 
Q 18.359375 34.515625 30.609375 34.515625 
L 43.21875 34.515625 
L 43.21875 35.40625 
Q 43.21875 41.609375 39.140625 45 
Q 35.0625 48.390625 27.6875 48.390625 
Q 23 48.390625 18.546875 47.265625 
Q 14.109375 46.140625 10.015625 43.890625 
L 10.015625 52.203125 
Q 14.9375 54.109375 19.578125 55.046875 
Q 24.21875 56 28.609375 56 
Q 40.484375 56 46.34375 49.84375 
Q 52.203125 43.703125 52.203125 31.203125 
z
" id="DejaVuSans-97"/>
       <path d="M 41.109375 46.296875 
Q 39.59375 47.171875 37.8125 47.578125 
Q 36.03125 48 33.890625 48 
Q 26.265625 48 22.1875 43.046875 
Q 18.109375 38.09375 18.109375 28.8125 
L 18.109375 0 
L 9.078125 0 
L 9.078125 54.6875 
L 18.109375 54.6875 
L 18.109375 46.1875 
Q 20.953125 51.171875 25.484375 53.578125 
Q 30.03125 56 36.53125 56 
Q 37.453125 56 38.578125 55.875 
Q 39.703125 55.765625 41.0625 55.515625 
z
" id="DejaVuSans-114"/>
      </defs>
      <use xlink:href="#DejaVuSans-87"/>
      <use x="96.626953" xlink:href="#DejaVuSans-105"/>
      <use x="124.410156" xlink:href="#DejaVuSans-116"/>
      <use x="163.619141" xlink:href="#DejaVuSans-104"/>
      <use x="226.998047" xlink:href="#DejaVuSans-111"/>
      <use x="288.179688" xlink:href="#DejaVuSans-117"/>
      <use x="351.558594" xlink:href="#DejaVuSans-116"/>
      <use x="390.767578" xlink:href="#DejaVuSans-32"/>
      <use x="422.554688" xlink:href="#DejaVuSans-115"/>
      <use x="474.654297" xlink:href="#DejaVuSans-112"/>
      <use x="538.130859" xlink:href="#DejaVuSans-101"/>
      <use x="599.654297" xlink:href="#DejaVuSans-101"/>
      <use x="661.177734" xlink:href="#DejaVuSans-100"/>
      <use x="724.654297" xlink:href="#DejaVuSans-32"/>
      <use x="756.441406" xlink:href="#DejaVuSans-101"/>
      <use x="817.964844" xlink:href="#DejaVuSans-115"/>
      <use x="870.064453" xlink:href="#DejaVuSans-116"/>
      <use x="909.273438" xlink:href="#DejaVuSans-105"/>
      <use x="937.056641" xlink:href="#DejaVuSans-109"/>
      <use x="1034.46875" xlink:href="#DejaVuSans-97"/>
      <use x="1095.748047" xlink:href="#DejaVuSans-116"/>
      <use x="1134.957031" xlink:href="#DejaVuSans-111"/>
      <use x="1196.138672" xlink:href="#DejaVuSans-114"/>
     </g>
    </g>
    <g id="patch_9">
     <path d="M 99 74.476562 
L 119 74.476562 
L 119 67.476562 
L 99 67.476562 
z
" style="fill:#008000;stroke:#008000;stroke-linejoin:miter;"/>
    </g>
    <g id="text_15">
     <!-- With speed estimator -->
     <g transform="translate(127 74.476562)scale(0.1 -0.1)">
      <use xlink:href="#DejaVuSans-87"/>
      <use x="96.626953" xlink:href="#DejaVuSans-105"/>
      <use x="124.410156" xlink:href="#DejaVuSans-116"/>
      <use x="163.619141" xlink:href="#DejaVuSans-104"/>
      <use x="226.998047" xlink:href="#DejaVuSans-32"/>
      <use x="258.785156" xlink:href="#DejaVuSans-115"/>
      <use x="310.884766" xlink:href="#DejaVuSans-112"/>
      <use x="374.361328" xlink:href="#DejaVuSans-101"/>
      <use x="435.884766" xlink:href="#DejaVuSans-101"/>
      <use x="497.408203" xlink:href="#DejaVuSans-100"/>
      <use x="560.884766" xlink:href="#DejaVuSans-32"/>
      <use x="592.671875" xlink:href="#DejaVuSans-101"/>
      <use x="654.195312" xlink:href="#DejaVuSans-115"/>
      <use x="706.294922" xlink:href="#DejaVuSans-116"/>
      <use x="745.503906" xlink:href="#DejaVuSans-105"/>
      <use x="773.287109" xlink:href="#DejaVuSans-109"/>
      <use x="870.699219" xlink:href="#DejaVuSans-97"/>
      <use x="931.978516" xlink:href="#DejaVuSans-116"/>
      <use x="971.1875" xlink:href="#DejaVuSans-111"/>
      <use x="1032.369141" xlink:href="#DejaVuSans-114"/>
     </g>
    </g>
   </g>
  </g>
 </g>
 <defs>
  <clipPath id="p14a0a74996">
   <rect height="277.2" width="558" x="90" y="43.2"/>
  </clipPath>
 </defs>
</svg>
